<?xml version="1.0" encoding="UTF-8"?>
<!--Generator: Apple Native CoreSVG 175-->
<!DOCTYPE svg
PUBLIC "-//W3C//DTD SVG 1.1//EN"
       "http://www.w3.org/Graphics/SVG/1.1/DTD/svg11.dtd">
<svg version="1.1" xmlns="http://www.w3.org/2000/svg" xmlns:xlink="http://www.w3.org/1999/xlink" width="3300" height="2200">
 <!--glyph: "uni1008D4.medium", point size: 100.0, font version: "17.0d12e1", template writer version: "65.1"-->
 <style>.hierarchical-0:primary {fill:#212121}
.hierarchical-1:secondary {fill:#4D4D4D}

.SFSymbolsPreview212121 {fill:#212121;opacity:1.0}
.SFSymbolsPreview4D4D4D {fill:#4D4D4D;opacity:1.0}
</style>
 <g id="Notes">
  <rect height="2200" id="artboard" style="fill:white;opacity:1" width="3300" x="0" y="0"/>
  <line style="fill:none;stroke:black;opacity:1;stroke-width:0.5;" x1="263" x2="3036" y1="292" y2="292"/>
  <text style="stroke:none;fill:black;font-family:sans-serif;font-size:13;font-weight:bold;" transform="matrix(1 0 0 1 263 322)">Weight/Scale Variations</text>
  <text style="stroke:none;fill:black;font-family:sans-serif;font-size:13;text-anchor:middle;" transform="matrix(1 0 0 1 559.711 322)">Ultralight</text>
  <text style="stroke:none;fill:black;font-family:sans-serif;font-size:13;text-anchor:middle;" transform="matrix(1 0 0 1 856.422 322)">Thin</text>
  <text style="stroke:none;fill:black;font-family:sans-serif;font-size:13;text-anchor:middle;" transform="matrix(1 0 0 1 1153.13 322)">Light</text>
  <text style="stroke:none;fill:black;font-family:sans-serif;font-size:13;text-anchor:middle;" transform="matrix(1 0 0 1 1449.84 322)">Regular</text>
  <text style="stroke:none;fill:black;font-family:sans-serif;font-size:13;text-anchor:middle;" transform="matrix(1 0 0 1 1746.56 322)">Medium</text>
  <text style="stroke:none;fill:black;font-family:sans-serif;font-size:13;text-anchor:middle;" transform="matrix(1 0 0 1 2043.27 322)">Semibold</text>
  <text style="stroke:none;fill:black;font-family:sans-serif;font-size:13;text-anchor:middle;" transform="matrix(1 0 0 1 2339.98 322)">Bold</text>
  <text style="stroke:none;fill:black;font-family:sans-serif;font-size:13;text-anchor:middle;" transform="matrix(1 0 0 1 2636.69 322)">Heavy</text>
  <text style="stroke:none;fill:black;font-family:sans-serif;font-size:13;text-anchor:middle;" transform="matrix(1 0 0 1 2933.4 322)">Black</text>
  <line style="fill:none;stroke:black;opacity:1;stroke-width:0.5;" x1="263" x2="3036" y1="1903" y2="1903"/>
  <g transform="matrix(1 0 0 1 263 1933)">
   <path d="M9.24805 0.830078Q10.8691 0.830078 12.2949 0.214844Q13.7207-0.400391 14.8096-1.49414Q15.8984-2.58789 16.5186-4.01367Q17.1387-5.43945 17.1387-7.05078Q17.1387-8.66211 16.5186-10.0879Q15.8984-11.5137 14.8047-12.6074Q13.7109-13.7012 12.2852-14.3164Q10.8594-14.9316 9.23828-14.9316Q7.62695-14.9316 6.20117-14.3164Q4.77539-13.7012 3.69141-12.6074Q2.60742-11.5137 1.9873-10.0879Q1.36719-8.66211 1.36719-7.05078Q1.36719-5.43945 1.9873-4.01367Q2.60742-2.58789 3.69629-1.49414Q4.78516-0.400391 6.21094 0.214844Q7.63672 0.830078 9.24805 0.830078ZM9.24805-0.654297Q7.91992-0.654297 6.7627-1.14746Q5.60547-1.64062 4.73145-2.51953Q3.85742-3.39844 3.36426-4.56055Q2.87109-5.72266 2.87109-7.05078Q2.87109-8.37891 3.35938-9.54102Q3.84766-10.7031 4.72168-11.582Q5.5957-12.4609 6.75293-12.9541Q7.91016-13.4473 9.23828-13.4473Q10.5762-13.4473 11.7334-12.9541Q12.8906-12.4609 13.7695-11.582Q14.6484-10.7031 15.1465-9.54102Q15.6445-8.37891 15.6445-7.05078Q15.6445-5.72266 15.1514-4.56055Q14.6582-3.39844 13.7842-2.51953Q12.9102-1.64062 11.748-1.14746Q10.5859-0.654297 9.24805-0.654297ZM5.6543-7.05078Q5.6543-6.72852 5.85938-6.52832Q6.06445-6.32812 6.40625-6.32812L8.51562-6.32812L8.51562-4.20898Q8.51562-3.88672 8.71094-3.67676Q8.90625-3.4668 9.23828-3.4668Q9.56055-3.4668 9.77051-3.67676Q9.98047-3.88672 9.98047-4.20898L9.98047-6.32812L12.0898-6.32812Q12.4219-6.32812 12.627-6.52832Q12.832-6.72852 12.832-7.05078Q12.832-7.38281 12.627-7.58789Q12.4219-7.79297 12.0898-7.79297L9.98047-7.79297L9.98047-9.90234Q9.98047-10.2344 9.77051-10.4443Q9.56055-10.6543 9.23828-10.6543Q8.90625-10.6543 8.71094-10.4443Q8.51562-10.2344 8.51562-9.90234L8.51562-7.79297L6.40625-7.79297Q6.06445-7.79297 5.85938-7.58789Q5.6543-7.38281 5.6543-7.05078Z"/>
  </g>
  <g transform="matrix(1 0 0 1 281.867 1933)">
   <path d="M11.709 2.91016Q13.75 2.91016 15.5518 2.12891Q17.3535 1.34766 18.7305-0.0292969Q20.1074-1.40625 20.8887-3.20801Q21.6699-5.00977 21.6699-7.05078Q21.6699-9.0918 20.8887-10.8936Q20.1074-12.6953 18.7305-14.0723Q17.3535-15.4492 15.5469-16.2305Q13.7402-17.0117 11.6992-17.0117Q9.6582-17.0117 7.85645-16.2305Q6.05469-15.4492 4.68262-14.0723Q3.31055-12.6953 2.5293-10.8936Q1.74805-9.0918 1.74805-7.05078Q1.74805-5.00977 2.5293-3.20801Q3.31055-1.40625 4.6875-0.0292969Q6.06445 1.34766 7.86621 2.12891Q9.66797 2.91016 11.709 2.91016ZM11.709 1.25Q9.98047 1.25 8.47656 0.605469Q6.97266-0.0390625 5.83496-1.17676Q4.69727-2.31445 4.05762-3.81836Q3.41797-5.32227 3.41797-7.05078Q3.41797-8.7793 4.05762-10.2832Q4.69727-11.7871 5.83008-12.9297Q6.96289-14.0723 8.4668-14.7119Q9.9707-15.3516 11.6992-15.3516Q13.4277-15.3516 14.9316-14.7119Q16.4355-14.0723 17.5781-12.9297Q18.7207-11.7871 19.3652-10.2832Q20.0098-8.7793 20.0098-7.05078Q20.0098-5.32227 19.3701-3.81836Q18.7305-2.31445 17.5928-1.17676Q16.4551-0.0390625 14.9463 0.605469Q13.4375 1.25 11.709 1.25ZM7.17773-7.05078Q7.17773-6.69922 7.41211-6.47461Q7.64648-6.25 8.01758-6.25L10.8887-6.25L10.8887-3.36914Q10.8887-2.99805 11.1133-2.76855Q11.3379-2.53906 11.6895-2.53906Q12.0605-2.53906 12.29-2.76855Q12.5195-2.99805 12.5195-3.36914L12.5195-6.25L15.4004-6.25Q15.7715-6.25 16.001-6.47461Q16.2305-6.69922 16.2305-7.05078Q16.2305-7.42188 16.001-7.65137Q15.7715-7.88086 15.4004-7.88086L12.5195-7.88086L12.5195-10.752Q12.5195-11.1328 12.29-11.3623Q12.0605-11.5918 11.6895-11.5918Q11.3379-11.5918 11.1133-11.3574Q10.8887-11.123 10.8887-10.752L10.8887-7.88086L8.01758-7.88086Q7.63672-7.88086 7.40723-7.65137Q7.17773-7.42188 7.17773-7.05078Z"/>
  </g>
  <g transform="matrix(1 0 0 1 305.646 1933)">
   <path d="M14.9707 5.66406Q17.0605 5.66406 18.96 5.01465Q20.8594 4.36523 22.4512 3.19336Q24.043 2.02148 25.2197 0.429688Q26.3965-1.16211 27.0459-3.06641Q27.6953-4.9707 27.6953-7.05078Q27.6953-9.14062 27.0459-11.04Q26.3965-12.9395 25.2197-14.5312Q24.043-16.123 22.4512-17.2998Q20.8594-18.4766 18.9551-19.126Q17.0508-19.7754 14.9609-19.7754Q12.8711-19.7754 10.9717-19.126Q9.07227-18.4766 7.48535-17.2998Q5.89844-16.123 4.72168-14.5312Q3.54492-12.9395 2.90039-11.04Q2.25586-9.14062 2.25586-7.05078Q2.25586-4.9707 2.90527-3.06641Q3.55469-1.16211 4.72656 0.429688Q5.89844 2.02148 7.49023 3.19336Q9.08203 4.36523 10.9814 5.01465Q12.8809 5.66406 14.9707 5.66406ZM14.9707 3.84766Q13.1641 3.84766 11.5283 3.2959Q9.89258 2.74414 8.53516 1.74805Q7.17773 0.751953 6.17676-0.610352Q5.17578-1.97266 4.62891-3.6084Q4.08203-5.24414 4.08203-7.05078Q4.08203-8.86719 4.62891-10.5029Q5.17578-12.1387 6.17188-13.501Q7.16797-14.8633 8.52539-15.8594Q9.88281-16.8555 11.5186-17.4023Q13.1543-17.9492 14.9609-17.9492Q16.7773-17.9492 18.4131-17.4023Q20.0488-16.8555 21.4111-15.8594Q22.7734-14.8633 23.7695-13.501Q24.7656-12.1387 25.3174-10.5029Q25.8691-8.86719 25.8691-7.05078Q25.8789-5.24414 25.332-3.6084Q24.7852-1.97266 23.7842-0.610352Q22.7832 0.751953 21.4209 1.74805Q20.0586 2.74414 18.4229 3.2959Q16.7871 3.84766 14.9707 3.84766ZM9.19922-7.05078Q9.19922-6.66992 9.45801-6.4209Q9.7168-6.17188 10.1172-6.17188L14.0625-6.17188L14.0625-2.2168Q14.0625-1.81641 14.3115-1.55762Q14.5605-1.29883 14.9512-1.29883Q15.3516-1.29883 15.6104-1.55273Q15.8691-1.80664 15.8691-2.2168L15.8691-6.17188L19.8242-6.17188Q20.2246-6.17188 20.4785-6.4209Q20.7324-6.66992 20.7324-7.05078Q20.7324-7.46094 20.4785-7.71484Q20.2246-7.96875 19.8242-7.96875L15.8691-7.96875L15.8691-11.9141Q15.8691-12.3242 15.6104-12.583Q15.3516-12.8418 14.9512-12.8418Q14.5605-12.8418 14.3115-12.583Q14.0625-12.3242 14.0625-11.9141L14.0625-7.96875L10.1172-7.96875Q9.70703-7.96875 9.45312-7.71484Q9.19922-7.46094 9.19922-7.05078Z"/>
  </g>
  <text style="stroke:none;fill:black;font-family:sans-serif;font-size:13;font-weight:bold;" transform="matrix(1 0 0 1 263 1953)">Design Variations</text>
  <text style="stroke:none;fill:black;font-family:sans-serif;font-size:13;" transform="matrix(1 0 0 1 263 1971)">Symbols are supported in up to nine weights and three scales.</text>
  <text style="stroke:none;fill:black;font-family:sans-serif;font-size:13;" transform="matrix(1 0 0 1 263 1989)">For optimal layout with text and other symbols, vertically align</text>
  <text style="stroke:none;fill:black;font-family:sans-serif;font-size:13;" transform="matrix(1 0 0 1 263 2007)">symbols with the adjacent text.</text>
  <line style="fill:none;stroke:#00AEEF;stroke-width:0.5;opacity:1.0;" x1="776" x2="776" y1="1919" y2="1933"/>
  <g transform="matrix(1 0 0 1 776 1933)">
   <path d="M3.31055 0.15625Q3.70117 0.15625 3.91602-0.00976562Q4.13086-0.175781 4.26758-0.585938L5.52734-4.0332L11.2891-4.0332L12.5488-0.585938Q12.6855-0.175781 12.9004-0.00976562Q13.1152 0.15625 13.4961 0.15625Q13.8867 0.15625 14.1162-0.0585938Q14.3457-0.273438 14.3457-0.644531Q14.3457-0.869141 14.2383-1.17188L9.6582-13.3691Q9.48242-13.8184 9.17969-14.043Q8.87695-14.2676 8.4082-14.2676Q7.5-14.2676 7.17773-13.3789L2.59766-1.16211Q2.49023-0.859375 2.49023-0.634766Q2.49023-0.263672 2.70996-0.0537109Q2.92969 0.15625 3.31055 0.15625ZM6.00586-5.51758L8.37891-12.0898L8.42773-12.0898L10.8008-5.51758Z"/>
  </g>
  <line style="fill:none;stroke:#00AEEF;stroke-width:0.5;opacity:1.0;" x1="793.197" x2="793.197" y1="1919" y2="1933"/>
  <text style="stroke:none;fill:black;font-family:sans-serif;font-size:13;font-weight:bold;" transform="matrix(1 0 0 1 776 1953)">Margins</text>
  <text style="stroke:none;fill:black;font-family:sans-serif;font-size:13;" transform="matrix(1 0 0 1 776 1971)">Leading and trailing margins on the left and right side of each symbol</text>
  <text style="stroke:none;fill:black;font-family:sans-serif;font-size:13;" transform="matrix(1 0 0 1 776 1989)">can be adjusted by modifying the x-location of the margin guidelines.</text>
  <text style="stroke:none;fill:black;font-family:sans-serif;font-size:13;" transform="matrix(1 0 0 1 776 2007)">Modifications are automatically applied proportionally to all</text>
  <text style="stroke:none;fill:black;font-family:sans-serif;font-size:13;" transform="matrix(1 0 0 1 776 2025)">scales and weights.</text>
  <g transform="matrix(1 0 0 1 1289 1933)">
   <path d="M2.8418 1.86523L4.54102 3.57422Q5.18555 4.22852 5.90332 4.17969Q6.62109 4.13086 7.31445 3.35938L18.0078-8.42773L17.041-9.4043L6.42578 2.27539Q6.16211 2.57812 5.89355 2.61719Q5.625 2.65625 5.27344 2.30469L4.10156 1.14258Q3.75 0.791016 3.79395 0.522461Q3.83789 0.253906 4.14062-0.0195312L15.6152-10.8203L14.6387-11.7871L3.04688-0.898438Q2.30469-0.214844 2.25098 0.498047Q2.19727 1.21094 2.8418 1.86523ZM9.25781-16.3281Q8.94531-16.0254 8.90625-15.6348Q8.86719-15.2441 9.04297-14.9512Q9.21875-14.6777 9.55566-14.541Q9.89258-14.4043 10.3809-14.5215Q11.4746-14.7754 12.5977-14.7314Q13.7207-14.6875 14.7949-13.9844L14.209-12.5293Q13.9551-11.9043 14.0674-11.4404Q14.1797-10.9766 14.5801-10.5664L16.875-8.25195Q17.2363-7.88086 17.5781-7.82227Q17.9199-7.76367 18.3398-7.8418L19.4043-8.03711L20.0684-7.36328L20.0293-6.80664Q20-6.43555 20.1221-6.12305Q20.2441-5.81055 20.6055-5.44922L21.3672-4.70703Q21.7285-4.3457 22.1533-4.33105Q22.5781-4.31641 22.9297-4.66797L25.8398-7.58789Q26.1914-7.93945 26.1816-8.35449Q26.1719-8.76953 25.8105-9.13086L25.0391-9.89258Q24.6875-10.2539 24.3799-10.3857Q24.0723-10.5176 23.7109-10.4883L23.1348-10.4395L22.4902-11.0742L22.7344-12.1973Q22.832-12.6172 22.6953-12.9834Q22.5586-13.3496 22.1191-13.7891L19.9219-15.9766Q18.6719-17.2168 17.2607-17.8369Q15.8496-18.457 14.4189-18.4814Q12.9883-18.5059 11.665-17.959Q10.3418-17.4121 9.25781-16.3281ZM10.752-15.957Q11.6602-16.6211 12.7002-16.9043Q13.7402-17.1875 14.8047-17.085Q15.8691-16.9824 16.8701-16.5137Q17.8711-16.0449 18.7012-15.2051L21.1328-12.793Q21.3086-12.6172 21.3525-12.4512Q21.3965-12.2852 21.3379-12.0312L21.0156-10.5469L22.5195-9.0625L23.5059-9.12109Q23.6914-9.13086 23.7891-9.09668Q23.8867-9.0625 24.0332-8.91602L24.6094-8.33984L22.168-5.89844L21.5918-6.47461Q21.4453-6.62109 21.4062-6.71875Q21.3672-6.81641 21.377-7.01172L21.4453-7.98828L19.9512-9.47266L18.4277-9.21875Q18.1836-9.16992 18.042-9.2041Q17.9004-9.23828 17.7148-9.41406L15.7129-11.416Q15.5176-11.5918 15.4932-11.7529Q15.4688-11.9141 15.5859-12.1875L16.4648-14.2773Q15.293-15.3711 13.8281-15.791Q12.3633-16.2109 10.8398-15.7617Q10.7227-15.7324 10.6885-15.8057Q10.6543-15.8789 10.752-15.957Z"/>
  </g>
  <text style="stroke:none;fill:black;font-family:sans-serif;font-size:13;font-weight:bold;" transform="matrix(1 0 0 1 1289 1953)">Exporting</text>
  <text style="stroke:none;fill:black;font-family:sans-serif;font-size:13;" transform="matrix(1 0 0 1 1289 1971)">Symbols should be outlined when exporting to ensure the</text>
  <text style="stroke:none;fill:black;font-family:sans-serif;font-size:13;" transform="matrix(1 0 0 1 1289 1989)">design is preserved when submitting to Xcode.</text>
  <text id="template-version" style="stroke:none;fill:black;font-family:sans-serif;font-size:13;text-anchor:end;" transform="matrix(1 0 0 1 3036 1933)">Template v.3.0</text>
  <text style="stroke:none;fill:black;font-family:sans-serif;font-size:13;text-anchor:end;" transform="matrix(1 0 0 1 3036 1951)">Requires Xcode 13 or greater</text>
  <text id="descriptive-name" style="stroke:none;fill:black;font-family:sans-serif;font-size:13;text-anchor:end;" transform="matrix(1 0 0 1 3036 1969)">Generated from clock.arrow.circlepath</text>
  <text style="stroke:none;fill:black;font-family:sans-serif;font-size:13;text-anchor:end;" transform="matrix(1 0 0 1 3036 1987)">Typeset at 100 points</text>
  <text style="stroke:none;fill:black;font-family:sans-serif;font-size:13;" transform="matrix(1 0 0 1 263 726)">Small</text>
  <text style="stroke:none;fill:black;font-family:sans-serif;font-size:13;" transform="matrix(1 0 0 1 263 1156)">Medium</text>
  <text style="stroke:none;fill:black;font-family:sans-serif;font-size:13;" transform="matrix(1 0 0 1 263 1586)">Large</text>
 </g>
 <g id="Guides">
  <g id="H-reference" style="fill:#27AAE1;stroke:none;" transform="matrix(1 0 0 1 339 696)">
   <path d="M0.976562 0L3.66211 0L29.3457-67.1387L30.0293-67.1387L30.0293-70.459L28.125-70.459ZM11.6699-24.4629L46.9727-24.4629L46.2402-26.709L12.4512-26.709ZM55.127 0L57.7637 0L30.6152-70.459L29.4434-70.459L29.4434-67.1387Z"/>
  </g>
  <line id="Baseline-S" style="fill:none;stroke:#27AAE1;opacity:1;stroke-width:0.5;" x1="263" x2="3036" y1="696" y2="696"/>
  <line id="Capline-S" style="fill:none;stroke:#27AAE1;opacity:1;stroke-width:0.5;" x1="263" x2="3036" y1="625.541" y2="625.541"/>
  <g id="H-reference" style="fill:#27AAE1;stroke:none;" transform="matrix(1 0 0 1 339 1126)">
   <path d="M0.976562 0L3.66211 0L29.3457-67.1387L30.0293-67.1387L30.0293-70.459L28.125-70.459ZM11.6699-24.4629L46.9727-24.4629L46.2402-26.709L12.4512-26.709ZM55.127 0L57.7637 0L30.6152-70.459L29.4434-70.459L29.4434-67.1387Z"/>
  </g>
  <line id="Baseline-M" style="fill:none;stroke:#27AAE1;opacity:1;stroke-width:0.5;" x1="263" x2="3036" y1="1126" y2="1126"/>
  <line id="Capline-M" style="fill:none;stroke:#27AAE1;opacity:1;stroke-width:0.5;" x1="263" x2="3036" y1="1055.54" y2="1055.54"/>
  <g id="H-reference" style="fill:#27AAE1;stroke:none;" transform="matrix(1 0 0 1 339 1556)">
   <path d="M0.976562 0L3.66211 0L29.3457-67.1387L30.0293-67.1387L30.0293-70.459L28.125-70.459ZM11.6699-24.4629L46.9727-24.4629L46.2402-26.709L12.4512-26.709ZM55.127 0L57.7637 0L30.6152-70.459L29.4434-70.459L29.4434-67.1387Z"/>
  </g>
  <line id="Baseline-L" style="fill:none;stroke:#27AAE1;opacity:1;stroke-width:0.5;" x1="263" x2="3036" y1="1556" y2="1556"/>
  <line id="Capline-L" style="fill:none;stroke:#27AAE1;opacity:1;stroke-width:0.5;" x1="263" x2="3036" y1="1485.54" y2="1485.54"/>
  <line id="left-margin-Ultralight-S" style="fill:none;stroke:#00AEEF;stroke-width:0.5;opacity:1.0;" x1="512.055" x2="512.055" y1="600.785" y2="720.121"/>
  <line id="right-margin-Ultralight-S" style="fill:none;stroke:#00AEEF;stroke-width:0.5;opacity:1.0;" x1="607.367" x2="607.367" y1="600.785" y2="720.121"/>
  <line id="left-margin-Thin-S" style="fill:none;stroke:#00AEEF;stroke-width:0.5;opacity:1.0;" x1="808.229" x2="808.229" y1="600.785" y2="720.121"/>
  <line id="right-margin-Thin-S" style="fill:none;stroke:#00AEEF;stroke-width:0.5;opacity:1.0;" x1="904.616" x2="904.616" y1="600.785" y2="720.121"/>
  <line id="left-margin-Light-S" style="fill:none;stroke:#00AEEF;stroke-width:0.5;opacity:1.0;" x1="1103.91" x2="1103.91" y1="600.785" y2="720.121"/>
  <line id="right-margin-Light-S" style="fill:none;stroke:#00AEEF;stroke-width:0.5;opacity:1.0;" x1="1202.35" x2="1202.35" y1="600.785" y2="720.121"/>
  <line id="left-margin-Regular-S" style="fill:none;stroke:#00AEEF;stroke-width:0.5;opacity:1.0;" x1="1399.84" x2="1399.84" y1="600.785" y2="720.121"/>
  <line id="right-margin-Regular-S" style="fill:none;stroke:#00AEEF;stroke-width:0.5;opacity:1.0;" x1="1499.84" x2="1499.84" y1="600.785" y2="720.121"/>
  <line id="left-margin-Medium-S" style="fill:none;stroke:#00AEEF;stroke-width:0.5;opacity:1.0;" x1="1696.02" x2="1696.02" y1="600.785" y2="720.121"/>
  <line id="right-margin-Medium-S" style="fill:none;stroke:#00AEEF;stroke-width:0.5;opacity:1.0;" x1="1797.09" x2="1797.09" y1="600.785" y2="720.121"/>
  <line id="left-margin-Semibold-S" style="fill:none;stroke:#00AEEF;stroke-width:0.5;opacity:1.0;" x1="1992.34" x2="1992.34" y1="600.785" y2="720.121"/>
  <line id="right-margin-Semibold-S" style="fill:none;stroke:#00AEEF;stroke-width:0.5;opacity:1.0;" x1="2094.19" x2="2094.19" y1="600.785" y2="720.121"/>
  <line id="left-margin-Bold-S" style="fill:none;stroke:#00AEEF;stroke-width:0.5;opacity:1.0;" x1="2288.51" x2="2288.51" y1="600.785" y2="720.121"/>
  <line id="right-margin-Bold-S" style="fill:none;stroke:#00AEEF;stroke-width:0.5;opacity:1.0;" x1="2391.44" x2="2391.44" y1="600.785" y2="720.121"/>
  <line id="left-margin-Heavy-S" style="fill:none;stroke:#00AEEF;stroke-width:0.5;opacity:1.0;" x1="2584.44" x2="2584.44" y1="600.785" y2="720.121"/>
  <line id="right-margin-Heavy-S" style="fill:none;stroke:#00AEEF;stroke-width:0.5;opacity:1.0;" x1="2688.93" x2="2688.93" y1="600.785" y2="720.121"/>
  <line id="left-margin-Black-S" style="fill:none;stroke:#00AEEF;stroke-width:0.5;opacity:1.0;" x1="2880.47" x2="2880.47" y1="600.785" y2="720.121"/>
  <line id="right-margin-Black-S" style="fill:none;stroke:#00AEEF;stroke-width:0.5;opacity:1.0;" x1="2986.33" x2="2986.33" y1="600.785" y2="720.121"/>
  <line id="left-margin-Ultralight-M" style="fill:none;stroke:#00AEEF;stroke-width:0.5;opacity:1.0;" x1="499.115" x2="499.115" y1="1030.79" y2="1150.12"/>
  <line id="right-margin-Ultralight-M" style="fill:none;stroke:#00AEEF;stroke-width:0.5;opacity:1.0;" x1="620.307" x2="620.307" y1="1030.79" y2="1150.12"/>
  <line id="left-margin-Thin-M" style="fill:none;stroke:#00AEEF;stroke-width:0.5;opacity:1.0;" x1="795.216" x2="795.216" y1="1030.79" y2="1150.12"/>
  <line id="right-margin-Thin-M" style="fill:none;stroke:#00AEEF;stroke-width:0.5;opacity:1.0;" x1="917.628" x2="917.628" y1="1030.79" y2="1150.12"/>
  <line id="left-margin-Light-M" style="fill:none;stroke:#00AEEF;stroke-width:0.5;opacity:1.0;" x1="1090.76" x2="1090.76" y1="1030.79" y2="1150.12"/>
  <line id="right-margin-Light-M" style="fill:none;stroke:#00AEEF;stroke-width:0.5;opacity:1.0;" x1="1215.51" x2="1215.51" y1="1030.79" y2="1150.12"/>
  <line id="left-margin-Regular-M" style="fill:none;stroke:#00AEEF;stroke-width:0.5;opacity:1.0;" x1="1386.56" x2="1386.56" y1="1030.79" y2="1150.12"/>
  <line id="right-margin-Regular-M" style="fill:none;stroke:#00AEEF;stroke-width:0.5;opacity:1.0;" x1="1513.13" x2="1513.13" y1="1030.79" y2="1150.12"/>
  <line id="left-margin-Medium-M" style="fill:none;stroke:#00AEEF;stroke-width:0.5;opacity:1.0;" x1="1682.57" x2="1682.57" y1="1030.79" y2="1150.12"/>
  <line id="right-margin-Medium-M" style="fill:none;stroke:#00AEEF;stroke-width:0.5;opacity:1.0;" x1="1810.54" x2="1810.54" y1="1030.79" y2="1150.12"/>
  <line id="left-margin-Semibold-M" style="fill:none;stroke:#00AEEF;stroke-width:0.5;opacity:1.0;" x1="1978.72" x2="1978.72" y1="1030.79" y2="1150.12"/>
  <line id="right-margin-Semibold-M" style="fill:none;stroke:#00AEEF;stroke-width:0.5;opacity:1.0;" x1="2107.82" x2="2107.82" y1="1030.79" y2="1150.12"/>
  <line id="left-margin-Bold-M" style="fill:none;stroke:#00AEEF;stroke-width:0.5;opacity:1.0;" x1="2274.72" x2="2274.72" y1="1030.79" y2="1150.12"/>
  <line id="right-margin-Bold-M" style="fill:none;stroke:#00AEEF;stroke-width:0.5;opacity:1.0;" x1="2405.24" x2="2405.24" y1="1030.79" y2="1150.12"/>
  <line id="left-margin-Heavy-M" style="fill:none;stroke:#00AEEF;stroke-width:0.5;opacity:1.0;" x1="2570.38" x2="2570.38" y1="1030.79" y2="1150.12"/>
  <line id="right-margin-Heavy-M" style="fill:none;stroke:#00AEEF;stroke-width:0.5;opacity:1.0;" x1="2703" x2="2703" y1="1030.79" y2="1150.12"/>
  <line id="left-margin-Black-M" style="fill:none;stroke:#00AEEF;stroke-width:0.5;opacity:1.0;" x1="2866.16" x2="2866.16" y1="1030.79" y2="1150.12"/>
  <line id="right-margin-Black-M" style="fill:none;stroke:#00AEEF;stroke-width:0.5;opacity:1.0;" x1="3000.64" x2="3000.64" y1="1030.79" y2="1150.12"/>
  <line id="left-margin-Ultralight-L" style="fill:none;stroke:#00AEEF;stroke-width:0.5;opacity:1.0;" x1="481.757" x2="481.757" y1="1460.79" y2="1580.12"/>
  <line id="right-margin-Ultralight-L" style="fill:none;stroke:#00AEEF;stroke-width:0.5;opacity:1.0;" x1="637.665" x2="637.665" y1="1460.79" y2="1580.12"/>
  <line id="left-margin-Thin-L" style="fill:none;stroke:#00AEEF;stroke-width:0.5;opacity:1.0;" x1="777.809" x2="777.809" y1="1460.79" y2="1580.12"/>
  <line id="right-margin-Thin-L" style="fill:none;stroke:#00AEEF;stroke-width:0.5;opacity:1.0;" x1="935.036" x2="935.036" y1="1460.79" y2="1580.12"/>
  <line id="left-margin-Light-L" style="fill:none;stroke:#00AEEF;stroke-width:0.5;opacity:1.0;" x1="1073.23" x2="1073.23" y1="1460.79" y2="1580.12"/>
  <line id="right-margin-Light-L" style="fill:none;stroke:#00AEEF;stroke-width:0.5;opacity:1.0;" x1="1233.04" x2="1233.04" y1="1460.79" y2="1580.12"/>
  <line id="left-margin-Regular-L" style="fill:none;stroke:#00AEEF;stroke-width:0.5;opacity:1.0;" x1="1368.96" x2="1368.96" y1="1460.79" y2="1580.12"/>
  <line id="right-margin-Regular-L" style="fill:none;stroke:#00AEEF;stroke-width:0.5;opacity:1.0;" x1="1530.73" x2="1530.73" y1="1460.79" y2="1580.12"/>
  <line id="left-margin-Medium-L" style="fill:none;stroke:#00AEEF;stroke-width:0.5;opacity:1.0;" x1="1664.77" x2="1664.77" y1="1460.79" y2="1580.12"/>
  <line id="right-margin-Medium-L" style="fill:none;stroke:#00AEEF;stroke-width:0.5;opacity:1.0;" x1="1828.34" x2="1828.34" y1="1460.79" y2="1580.12"/>
  <line id="left-margin-Semibold-L" style="fill:none;stroke:#00AEEF;stroke-width:0.5;opacity:1.0;" x1="1960.8" x2="1960.8" y1="1460.79" y2="1580.12"/>
  <line id="right-margin-Semibold-L" style="fill:none;stroke:#00AEEF;stroke-width:0.5;opacity:1.0;" x1="2125.74" x2="2125.74" y1="1460.79" y2="1580.12"/>
  <line id="left-margin-Bold-L" style="fill:none;stroke:#00AEEF;stroke-width:0.5;opacity:1.0;" x1="2256.58" x2="2256.58" y1="1460.79" y2="1580.12"/>
  <line id="right-margin-Bold-L" style="fill:none;stroke:#00AEEF;stroke-width:0.5;opacity:1.0;" x1="2423.38" x2="2423.38" y1="1460.79" y2="1580.12"/>
  <line id="left-margin-Heavy-L" style="fill:none;stroke:#00AEEF;stroke-width:0.5;opacity:1.0;" x1="2551.97" x2="2551.97" y1="1460.79" y2="1580.12"/>
  <line id="right-margin-Heavy-L" style="fill:none;stroke:#00AEEF;stroke-width:0.5;opacity:1.0;" x1="2721.41" x2="2721.41" y1="1460.79" y2="1580.12"/>
  <line id="left-margin-Black-L" style="fill:none;stroke:#00AEEF;stroke-width:0.5;opacity:1.0;" x1="2847.51" x2="2847.51" y1="1460.79" y2="1580.12"/>
  <line id="right-margin-Black-L" style="fill:none;stroke:#00AEEF;stroke-width:0.5;opacity:1.0;" x1="3019.29" x2="3019.29" y1="1460.79" y2="1580.12"/>
 </g>
 <g id="Symbols">
  <g id="Black-L" transform="matrix(1 0 0 1 2847.51 1556)">
   <path class="hierarchical-0:primary SFSymbolsPreview212121" d="M90.2832-70.5566Q87.2559-70.5566 85.1318-68.4326Q83.0078-66.3086 83.0078-63.3301L83.0078-32.1289Q83.0078-30.8105 83.4717-29.4678Q83.9355-28.125 84.9121-26.9043L98.2422-9.32617Q100.391-6.49414 103.369-5.98145Q106.348-5.46875 108.984-7.37305Q111.475-9.17969 111.719-12.2559Q111.963-15.332 110.107-17.7734L90.9668-43.3105L97.5098-23.6328L97.5098-63.3301Q97.5098-66.3086 95.3857-68.4326Q93.2617-70.5566 90.2832-70.5566Z"/>
   <path class="hierarchical-1:secondary SFSymbolsPreview4D4D4D" d="M92.4805 32.8613Q103.711 32.8613 113.892 29.3945Q124.072 25.9277 132.593 19.6777Q141.113 13.4277 147.388 4.90723Q153.662-3.61328 157.104-13.7939Q160.547-23.9746 160.547-35.2051Q160.547-46.4355 157.104-56.6162Q153.662-66.7969 147.388-75.3174Q141.113-83.8379 132.593-90.1123Q124.072-96.3867 113.892-99.8291Q103.711-103.271 92.4805-103.271Q81.3477-103.271 71.2402-99.8779Q61.1328-96.4844 52.6611-90.3076Q44.1895-84.1309 37.915-75.7568Q31.6406-67.3828 28.125-57.3242Q24.6094-47.2656 24.4141-36.1816L44.873-36.1816Q45.0195-43.9453 47.4854-50.9521Q49.9512-57.959 54.3457-63.7939Q58.7402-69.6289 64.6484-73.877Q70.5566-78.125 77.6123-80.4688Q84.668-82.8125 92.4805-82.8125Q100.391-82.8125 107.544-80.4199Q114.697-78.0273 120.654-73.6572Q126.611-69.2871 130.957-63.3545Q135.303-57.4219 137.72-50.2686Q140.137-43.1152 140.137-35.2051Q140.137-27.2949 137.72-20.1416Q135.303-12.9883 130.957-7.05566Q126.611-1.12305 120.654 3.24707Q114.697 7.61719 107.544 10.0098Q100.391 12.4023 92.4805 12.4023Q85.8398 12.4023 79.8584 10.7178Q73.877 9.0332 68.6035 5.88379Q63.3301 2.73438 58.7891-1.75781Q55.3711-4.98047 51.1475-5.66406Q46.9238-6.34766 43.4082-3.17383Q40.2832-0.292969 40.3564 3.93066Q40.4297 8.1543 44.043 12.2559Q49.3652 18.4082 57.3486 23.0469Q65.332 27.6855 74.4873 30.2734Q83.6426 32.8613 92.4805 32.8613ZM17.5293-50.3906Q14.3066-50.3906 12.7441-48.7305Q11.1816-47.0703 11.2305-44.6777Q11.2793-42.2852 12.9883-40.0879L32.2754-14.9902Q34.0332-12.6953 36.7676-12.7197Q39.502-12.7441 41.2109-14.9902L60.4492-40.0879Q62.1094-42.2363 62.1826-44.6533Q62.2559-47.0703 60.6934-48.7305Q59.1309-50.3906 56.0059-50.3906Z"/>
  </g>
  <g id="Heavy-L" transform="matrix(1 0 0 1 2551.97 1556)">
   <path class="hierarchical-0:primary SFSymbolsPreview212121" d="M88.916-70.8008Q86.1816-70.8008 84.2773-68.8965Q82.373-66.9922 82.373-64.3066L82.373-32.2266Q82.373-31.0059 82.7881-29.7607Q83.2031-28.5156 84.1309-27.3926L98.0469-9.0332Q100-6.49414 102.686-6.03027Q105.371-5.56641 107.764-7.27539Q110.01-8.93555 110.229-11.6699Q110.449-14.4043 108.74-16.6504L89.3066-42.5781L95.459-24.1211L95.459-64.3066Q95.459-66.9922 93.5303-68.8965Q91.6016-70.8008 88.916-70.8008Z"/>
   <path class="hierarchical-1:secondary SFSymbolsPreview4D4D4D" d="M91.1621 31.7871Q102.246 31.7871 112.256 28.3691Q122.266 24.9512 130.664 18.7988Q139.062 12.6465 145.239 4.24805Q151.416-4.15039 154.81-14.1602Q158.203-24.1699 158.203-35.2051Q158.203-46.2402 154.81-56.2744Q151.416-66.3086 145.239-74.6826Q139.062-83.0566 130.664-89.2578Q122.266-95.459 112.256-98.8525Q102.246-102.246 91.1621-102.246Q80.2246-102.246 70.2637-98.877Q60.3027-95.5078 51.9287-89.4043Q43.5547-83.3008 37.3779-75.0244Q31.2012-66.748 27.7588-56.8359Q24.3164-46.9238 24.1699-35.9863L41.9434-35.9863Q42.041-44.043 44.5801-51.3184Q47.1191-58.5938 51.6602-64.6729Q56.2012-70.752 62.3047-75.1709Q68.4082-79.5898 75.7324-82.0068Q83.0566-84.4238 91.1621-84.4238Q99.3652-84.4238 106.763-81.958Q114.16-79.4922 120.312-74.9756Q126.465-70.459 130.957-64.3311Q135.449-58.2031 137.939-50.8057Q140.43-43.4082 140.43-35.2051Q140.43-27.0508 137.939-19.6533Q135.449-12.2559 130.957-6.10352Q126.465 0.0488281 120.312 4.56543Q114.16 9.08203 106.763 11.5479Q99.3652 14.0137 91.1621 14.0137Q83.8867 14.0137 77.3438 12.0361Q70.8008 10.0586 65.1367 6.39648Q59.4727 2.73438 54.8828-2.39258Q51.9531-5.22461 48.3154-5.85938Q44.6777-6.49414 41.6016-3.85742Q38.8184-1.41602 38.7939 2.27051Q38.7695 5.95703 41.8457 9.52148Q47.3145 16.1621 55.3223 21.167Q63.3301 26.1719 72.6074 28.9795Q81.8848 31.7871 91.1621 31.7871ZM16.9922-49.6094Q14.0625-49.6094 12.6221-48.1445Q11.1816-46.6797 11.2305-44.5312Q11.2793-42.3828 12.8418-40.332L30.8594-16.5039Q32.5195-14.3066 35.0342-14.3311Q37.5488-14.3555 39.1602-16.5039L57.1289-40.332Q58.6914-42.3828 58.7402-44.5312Q58.7891-46.6797 57.373-48.1445Q55.957-49.6094 53.0762-49.6094Z"/>
  </g>
  <g id="Bold-L" transform="matrix(1 0 0 1 2256.58 1556)">
   <path class="hierarchical-0:primary SFSymbolsPreview212121" d="M87.4023-71.1426Q85.0098-71.1426 83.3252-69.458Q81.6406-67.7734 81.6406-65.3809L81.6406-32.373Q81.6406-31.2012 82.0312-30.1025Q82.4219-29.0039 83.252-27.9297L97.8027-8.74023Q99.5605-6.44531 101.904-6.05469Q104.248-5.66406 106.396-7.17773Q108.398-8.64258 108.569-11.0107Q108.74-13.3789 107.227-15.4297L87.5-41.7969L93.1641-24.6582L93.1641-65.3809Q93.1641-67.7734 91.4795-69.458Q89.7949-71.1426 87.4023-71.1426Z"/>
   <path class="hierarchical-1:secondary SFSymbolsPreview4D4D4D" d="M89.7461 30.6152Q100.586 30.6152 110.425 27.2461Q120.264 23.877 128.491 17.8223Q136.719 11.7676 142.798 3.51562Q148.877-4.73633 152.222-14.5752Q155.566-24.4141 155.566-35.2539Q155.566-46.0938 152.222-55.9326Q148.877-65.7715 142.798-73.999Q136.719-82.2266 128.491-88.3057Q120.264-94.3848 110.425-97.7295Q100.586-101.074 89.7461-101.074Q78.9551-101.074 69.1406-97.7539Q59.3262-94.4336 51.123-88.4277Q42.9199-82.4219 36.8408-74.2432Q30.7617-66.0645 27.3926-56.2988Q24.0234-46.5332 23.9258-35.7422L38.6719-35.7422Q38.7695-44.1895 41.3574-51.7578Q43.9453-59.3262 48.6572-65.6494Q53.3691-71.9727 59.7168-76.5869Q66.0645-81.2012 73.6816-83.7402Q81.2988-86.2793 89.7461-86.2793Q98.1934-86.2793 105.859-83.7158Q113.525-81.1523 119.922-76.4648Q126.318-71.7773 130.981-65.4297Q135.645-59.082 138.232-51.416Q140.82-43.75 140.82-35.2539Q140.82-26.7578 138.232-19.0918Q135.645-11.4258 130.981-5.0293Q126.318 1.36719 119.922 6.03027Q113.525 10.6934 105.859 13.2568Q98.1934 15.8203 89.7461 15.8203Q81.7383 15.8203 74.5605 13.501Q67.3828 11.1816 61.2793 6.93359Q55.1758 2.68555 50.4883-3.125Q48.1445-5.56641 45.166-6.12793Q42.1875-6.68945 39.5996-4.58984Q37.207-2.68555 37.0605 0.415039Q36.9141 3.51562 39.4043 6.44531Q45.0195 13.623 53.0518 19.0674Q61.084 24.5117 70.5078 27.5635Q79.9316 30.6152 89.7461 30.6152ZM16.4062-48.7305Q13.7695-48.7305 12.4756-47.4854Q11.1816-46.2402 11.2305-44.3848Q11.2793-42.5293 12.6953-40.625L29.2969-18.2129Q30.8594-16.0645 33.1299-16.0889Q35.4004-16.1133 36.9141-18.2129L53.4668-40.6738Q54.8828-42.5293 54.9316-44.3848Q54.9805-46.2402 53.6865-47.4854Q52.3926-48.7305 49.8535-48.7305Z"/>
  </g>
  <g id="Semibold-L" transform="matrix(1 0 0 1 1960.8 1556)">
   <path class="hierarchical-0:primary SFSymbolsPreview212121" d="M86.377-71.3379Q84.1797-71.3379 82.6416-69.7998Q81.1035-68.2617 81.1035-66.1133L81.1035-32.4707Q81.1035-31.3477 81.4697-30.3223Q81.8359-29.2969 82.666-28.2715L97.6562-8.49609Q99.2188-6.44531 101.343-6.0791Q103.467-5.71289 105.42-7.12891Q107.227-8.39844 107.397-10.5225Q107.568-12.6465 106.201-14.5508L86.2305-41.2109L91.5527-25.0488L91.5527-66.1133Q91.5527-68.2617 90.0146-69.7998Q88.4766-71.3379 86.377-71.3379Z"/>
   <path class="hierarchical-1:secondary SFSymbolsPreview4D4D4D" d="M88.7207 29.7852Q99.4141 29.7852 109.131 26.4648Q118.848 23.1445 126.978 17.1631Q135.107 11.1816 141.113 3.02734Q147.119-5.12695 150.415-14.8438Q153.711-24.5605 153.711-35.2539Q153.711-45.9473 150.415-55.6641Q147.119-65.3809 141.113-73.5107Q135.107-81.6406 126.978-87.6465Q118.848-93.6523 109.131-96.9727Q99.4141-100.293 88.7207-100.293Q78.0273-100.293 68.3594-96.9971Q58.6914-93.7012 50.5615-87.7441Q42.4316-81.7871 36.4258-73.6816Q30.4199-65.5762 27.0996-55.9082Q23.7793-46.2402 23.7305-35.5957L36.4258-35.5957Q36.4746-44.2383 39.1113-52.0264Q41.748-59.8145 46.5576-66.3086Q51.3672-72.8027 57.8857-77.5391Q64.4043-82.2754 72.2168-84.8877Q80.0293-87.5 88.7207-87.5Q97.4121-87.5 105.249-84.8877Q113.086-82.2754 119.629-77.4902Q126.172-72.7051 130.981-66.1865Q135.791-59.668 138.403-51.8066Q141.016-43.9453 141.016-35.2539Q141.016-26.5625 138.403-18.7012Q135.791-10.8398 130.981-4.29688Q126.172 2.24609 119.629 7.03125Q113.086 11.8164 105.249 14.4287Q97.4121 17.041 88.7207 17.041Q80.2246 17.041 72.6074 14.4775Q64.9902 11.9141 58.5938 7.2998Q52.1973 2.68555 47.4121-3.61328Q45.5078-5.76172 42.9688-6.29883Q40.4297-6.83594 38.1836-5.12695Q36.084-3.51562 35.8643-0.854492Q35.6445 1.80664 37.6953 4.29688Q43.457 11.8652 51.4893 17.6025Q59.5215 23.3398 69.043 26.5625Q78.5645 29.7852 88.7207 29.7852ZM15.9668-48.1445Q13.5742-48.1445 12.3779-47.0459Q11.1816-45.9473 11.2305-44.2627Q11.2793-42.5781 12.5977-40.8203L28.1738-19.3848Q29.6875-17.2852 31.7871-17.3096Q33.8867-17.334 35.3516-19.3848L50.9277-40.8691Q52.1973-42.627 52.2461-44.2871Q52.2949-45.9473 51.0986-47.0459Q49.9023-48.1445 47.5586-48.1445Z"/>
  </g>
  <g id="Medium-L" transform="matrix(1 0 0 1 1664.77 1556)">
   <path class="hierarchical-0:primary SFSymbolsPreview212121" d="M85.5469-71.4844Q83.5449-71.4844 82.1289-70.0684Q80.7129-68.6523 80.7129-66.6992L80.7129-32.5195Q80.7129-31.4453 81.0547-30.4932Q81.3965-29.541 82.1777-28.5645L97.5098-8.30078Q98.9746-6.39648 100.928-6.10352Q102.881-5.81055 104.688-7.03125Q106.396-8.25195 106.543-10.1807Q106.689-12.1094 105.371-13.8672L85.3027-40.7715L90.332-25.293L90.332-66.6992Q90.332-68.6523 88.9404-70.0684Q87.5488-71.4844 85.5469-71.4844Z"/>
   <path class="hierarchical-1:secondary SFSymbolsPreview4D4D4D" d="M87.9395 29.1504Q98.5352 29.1504 108.154 25.8545Q117.773 22.5586 125.83 16.626Q133.887 10.6934 139.844 2.63672Q145.801-5.41992 149.072-15.0635Q152.344-24.707 152.344-35.2539Q152.344-45.8496 149.072-55.4688Q145.801-65.0879 139.844-73.1445Q133.887-81.2012 125.83-87.1582Q117.773-93.1152 108.154-96.3867Q98.5352-99.6582 87.9395-99.6582Q77.3926-99.6582 67.7734-96.3867Q58.1543-93.1152 50.1221-87.207Q42.0898-81.2988 36.1328-73.2666Q30.1758-65.2344 26.8799-55.6396Q23.584-46.0449 23.584-35.4492L34.7168-35.4492Q34.7168-44.2871 37.4023-52.2461Q40.0879-60.2051 44.9951-66.8457Q49.9023-73.4863 56.5186-78.3203Q63.1348-83.1543 71.1182-85.8154Q79.1016-88.4766 87.9395-88.4766Q96.7773-88.4766 104.785-85.791Q112.793-83.1055 119.434-78.2471Q126.074-73.3887 130.957-66.748Q135.84-60.1074 138.525-52.124Q141.211-44.1406 141.211-35.2539Q141.211-26.416 138.525-18.4326Q135.84-10.4492 130.957-3.75977Q126.074 2.92969 119.434 7.78809Q112.793 12.6465 104.785 15.332Q96.7773 18.0176 87.9395 18.0176Q79.0527 17.9688 71.1182 15.2344Q63.1836 12.5 56.5674 7.56836Q49.9512 2.63672 45.1172-4.00391Q43.5059-5.9082 41.3086-6.39648Q39.1113-6.88477 37.1094-5.51758Q35.2539-4.19922 34.9609-1.85547Q34.668 0.488281 36.4258 2.68555Q42.2363 10.498 50.293 16.4795Q58.3496 22.4609 67.9443 25.8057Q77.5391 29.1504 87.9395 29.1504ZM15.625-47.6562Q13.4277-47.6562 12.3047-46.6797Q11.1816-45.7031 11.2305-44.165Q11.2793-42.627 12.5-40.9668L27.3438-20.2637Q28.8086-18.2129 30.7617-18.2373Q32.7148-18.2617 34.1797-20.2637L48.9746-41.0156Q50.1953-42.6758 50.2441-44.1895Q50.293-45.7031 49.1699-46.6797Q48.0469-47.6562 45.8984-47.6562Z"/>
  </g>
  <g id="Regular-L" transform="matrix(1 0 0 1 1368.96 1556)">
   <path class="hierarchical-0:primary SFSymbolsPreview212121" d="M84.5215-71.6797Q82.7148-71.6797 81.4697-70.4346Q80.2246-69.1895 80.2246-67.4316L80.2246-32.6172Q80.2246-31.5918 80.542-30.7129Q80.8594-29.834 81.5918-28.9062L97.3633-8.10547Q98.6816-6.39648 100.415-6.12793Q102.148-5.85938 103.76-6.98242Q105.273-8.05664 105.396-9.74121Q105.518-11.4258 104.346-13.0371L84.0332-40.2344L88.7695-25.6836L88.7695-67.4316Q88.7695-69.1895 87.5244-70.4346Q86.2793-71.6797 84.5215-71.6797Z"/>
   <path class="hierarchical-1:secondary SFSymbolsPreview4D4D4D" d="M86.9629 28.3203Q97.4121 28.3203 106.909 25.0732Q116.406 21.8262 124.365 15.9668Q132.324 10.1074 138.208 2.14844Q144.092-5.81055 147.314-15.332Q150.537-24.8535 150.537-35.2539Q150.537-45.7031 147.314-55.2002Q144.092-64.6973 138.208-72.6562Q132.324-80.6152 124.365-86.499Q116.406-92.3828 106.909-95.6299Q97.4121-98.877 86.9629-98.877Q76.5137-98.877 67.0166-95.6299Q57.5195-92.3828 49.5605-86.5234Q41.6016-80.6641 35.7178-72.7051Q29.834-64.7461 26.6113-55.249Q23.3887-45.752 23.3887-35.3027L32.4707-35.3027Q32.4707-44.3848 35.2051-52.5391Q37.9395-60.6934 42.9443-67.5049Q47.9492-74.3164 54.7363-79.2725Q61.5234-84.2285 69.7021-86.9629Q77.8809-89.6973 86.9629-89.6973Q95.9961-89.6973 104.175-86.9629Q112.354-84.2285 119.165-79.248Q125.977-74.2676 130.981-67.4805Q135.986-60.6934 138.721-52.5146Q141.455-44.3359 141.455-35.2539Q141.455-26.2207 138.721-18.042Q135.986-9.86328 130.981-3.02734Q125.977 3.80859 119.165 8.78906Q112.354 13.7695 104.175 16.5039Q95.9961 19.2383 86.9629 19.2383Q77.5879 19.1895 69.2139 16.2354Q60.8398 13.2812 53.9307 7.95898Q47.0215 2.63672 42.1387-4.49219Q40.918-6.10352 39.1602-6.56738Q37.4023-7.03125 35.7422-6.00586Q34.1309-5.0293 33.7646-3.10059Q33.3984-1.17188 34.7656 0.585938Q40.6738 8.78906 48.7549 15.0391Q56.8359 21.2891 66.5283 24.8047Q76.2207 28.3203 86.9629 28.3203ZM15.2344-47.0703Q13.2324-47.0703 12.207-46.2402Q11.1816-45.4102 11.2305-44.0674Q11.2793-42.7246 12.4023-41.1621L26.2695-21.4355Q27.6367-19.4336 29.4434-19.458Q31.25-19.4824 32.6172-21.4355L46.4844-41.2109Q47.6074-42.7734 47.6318-44.0918Q47.6562-45.4102 46.6309-46.2402Q45.6055-47.0703 43.6523-47.0703Z"/>
  </g>
  <g id="Light-L" transform="matrix(1 0 0 1 1073.23 1556)">
   <path class="hierarchical-0:primary SFSymbolsPreview212121" d="M83.4473-70.9473Q82.0312-70.9473 81.0791-69.9951Q80.127-69.043 80.127-67.7246L80.127-33.4473Q80.127-32.4707 80.3955-31.7383Q80.6641-31.0059 81.25-30.2246L97.3633-9.0332Q98.3398-7.76367 99.6582-7.59277Q100.977-7.42188 102.197-8.25195Q103.32-9.13086 103.418-10.376Q103.516-11.6211 102.637-12.8418L83.252-38.5742L86.6699-28.1738L86.6699-67.7246Q86.6699-69.043 85.7178-69.9951Q84.7656-70.9473 83.4473-70.9473Z"/>
   <path class="hierarchical-1:secondary SFSymbolsPreview4D4D4D" d="M85.9375 27.3926Q96.2402 27.3926 105.615 24.1943Q114.99 20.9961 122.827 15.2344Q130.664 9.47266 136.45 1.63574Q142.236-6.20117 145.41-15.5762Q148.584-24.9512 148.584-35.2539Q148.584-45.5566 145.41-54.9316Q142.236-64.3066 136.45-72.1436Q130.664-79.9805 122.827-85.7666Q114.99-91.5527 105.615-94.751Q96.2402-97.9492 85.9375-97.9492Q75.6348-97.9492 66.2598-94.751Q56.8848-91.5527 49.0479-85.791Q41.2109-80.0293 35.4248-72.1924Q29.6387-64.3555 26.4648-54.9805Q23.291-45.6055 23.291-35.3027L30.1758-35.3027Q30.1758-44.5312 32.9834-52.8809Q35.791-61.2305 40.918-68.2129Q46.0449-75.1953 52.9785-80.2979Q59.9121-85.4004 68.2861-88.208Q76.6602-91.0156 85.9375-91.0156Q95.166-91.0156 103.54-88.208Q111.914-85.4004 118.872-80.2734Q125.83-75.1465 130.957-68.1885Q136.084-61.2305 138.892-52.8809Q141.699-44.5312 141.699-35.2539Q141.699-26.0254 138.892-17.6758Q136.084-9.32617 130.957-2.31934Q125.83 4.6875 118.872 9.79004Q111.914 14.8926 103.54 17.7002Q95.166 20.5078 85.9375 20.5078Q76.0254 20.459 67.2363 17.2363Q58.4473 14.0137 51.2695 8.22754Q44.0918 2.44141 39.0625-5.27344Q38.1836-6.49414 36.8408-6.86035Q35.498-7.22656 34.2285-6.44531Q33.0078-5.71289 32.7148-4.27246Q32.4219-2.83203 33.4473-1.46484Q39.2578 6.98242 47.3389 13.501Q55.4199 20.0195 65.21 23.7061Q75 27.3926 85.9375 27.3926ZM14.5508-46.582Q12.8906-46.582 12.0361-45.8984Q11.1816-45.2148 11.2305-44.0674Q11.2793-42.9199 12.207-41.6016L25.7812-22.2656Q26.9531-20.5566 28.4668-20.5811Q29.9805-20.6055 31.1523-22.2656L44.6777-41.6504Q45.6543-42.9688 45.6543-44.0918Q45.6543-45.2148 44.8242-45.8984Q43.9941-46.582 42.3828-46.582Z"/>
  </g>
  <g id="Thin-L" transform="matrix(1 0 0 1 777.809 1556)">
   <path class="hierarchical-0:primary SFSymbolsPreview212121" d="M82.0312-69.9707Q81.1523-69.9707 80.5664-69.4336Q79.9805-68.8965 79.9805-68.0664L79.9805-34.5215Q79.9805-33.6426 80.2002-33.0811Q80.4199-32.5195 80.8594-31.9824L97.3145-10.2539Q97.8516-9.57031 98.6572-9.49707Q99.4629-9.42383 100.098-9.96094Q100.781-10.498 100.854-11.1816Q100.928-11.8652 100.391-12.5977L82.2266-36.3281L83.8867-31.3965L83.8867-68.0664Q83.8867-68.8965 83.3252-69.4336Q82.7637-69.9707 82.0312-69.9707Z"/>
   <path class="hierarchical-1:secondary SFSymbolsPreview4D4D4D" d="M84.5703 26.1719Q94.7266 26.1719 103.906 23.0469Q113.086 19.9219 120.776 14.2822Q128.467 8.64258 134.131 0.952148Q139.795-6.73828 142.896-15.9424Q145.996-25.1465 145.996-35.2539Q145.996-45.4102 142.896-54.5898Q139.795-63.7695 134.131-71.46Q128.467-79.1504 120.776-84.8145Q113.086-90.4785 103.906-93.6035Q94.7266-96.7285 84.5703-96.7285Q74.4629-96.7285 65.2588-93.6035Q56.0547-90.4785 48.3643-84.8145Q40.6738-79.1504 35.0098-71.4844Q29.3457-63.8184 26.2451-54.6143Q23.1445-45.4102 23.1445-35.2539L27.1484-35.2539Q27.1484-44.7754 30.0293-53.3936Q32.9102-62.0117 38.208-69.1895Q43.5059-76.3672 50.6592-81.6406Q57.8125-86.9141 66.4307-89.8193Q75.0488-92.7246 84.5703-92.7246Q94.043-92.7246 102.661-89.8193Q111.279-86.9141 118.481-81.6162Q125.684-76.3184 130.957-69.165Q136.23-62.0117 139.136-53.3936Q142.041-44.7754 142.041-35.2539Q142.041-25.7812 139.136-17.1631Q136.23-8.54492 130.957-1.34277Q125.684 5.85938 118.481 11.1084Q111.279 16.3574 102.661 19.2627Q94.043 22.168 84.5703 22.168Q74.0234 22.168 64.6484 18.5791Q55.2734 14.9902 47.7295 8.56934Q40.1855 2.14844 35.0586-6.29883Q34.5703-7.03125 33.7646-7.25098Q32.959-7.4707 32.2266-7.08008Q31.543-6.64062 31.3232-5.83496Q31.1035-5.0293 31.6895-4.24805Q37.4023 4.63867 45.459 11.499Q53.5156 18.3594 63.4277 22.2656Q73.3398 26.1719 84.5703 26.1719ZM13.623-45.8984Q12.4512-45.8984 11.8408-45.4102Q11.2305-44.9219 11.2305-44.0674Q11.2305-43.2129 11.9629-42.1875L25.0977-23.3887Q26.0254-22.0703 27.1484-22.0703Q28.2715-22.0703 29.1504-23.3887L42.2852-42.1875Q43.0176-43.2129 43.042-44.0674Q43.0664-44.9219 42.4316-45.4102Q41.7969-45.8984 40.6738-45.8984Z"/>
  </g>
  <g id="Ultralight-L" transform="matrix(1 0 0 1 481.757 1556)">
   <path class="hierarchical-0:primary SFSymbolsPreview212121" d="M81.2988-69.4336Q80.6641-69.4336 80.2734-69.1162Q79.8828-68.7988 79.8828-68.2617L79.8828-35.0586Q79.8828-34.2285 80.1025-33.7891Q80.3223-33.3496 80.6152-32.9102L97.3145-10.8887Q97.6562-10.498 98.1689-10.498Q98.6816-10.498 99.0234-10.8398Q99.4629-11.2305 99.5117-11.6211Q99.5605-12.0117 99.2676-12.4512L81.7383-35.2051L82.4707-33.1055L82.4707-68.2617Q82.4707-68.7988 82.1045-69.1162Q81.7383-69.4336 81.2988-69.4336Z"/>
   <path class="hierarchical-1:secondary SFSymbolsPreview4D4D4D" d="M83.8867 25.5371Q93.8965 25.5371 103.027 22.4609Q112.158 19.3848 119.751 13.7939Q127.344 8.20312 132.959 0.585938Q138.574-7.03125 141.626-16.1133Q144.678-25.1953 144.678-35.2539Q144.678-45.3125 141.626-54.4189Q138.574-63.5254 132.959-71.1182Q127.344-78.7109 119.751-84.3262Q112.158-89.9414 103.027-93.0176Q93.8965-96.0938 83.8867-96.0938Q73.8281-96.0938 64.7217-93.0176Q55.6152-89.9414 48.0225-84.3262Q40.4297-78.7109 34.8145-71.1182Q29.1992-63.5254 26.123-54.4189Q23.0469-45.3125 23.0469-35.2539L25.5859-35.2539Q25.5859-44.873 28.5156-53.6133Q31.4453-62.3535 36.8164-69.6533Q42.1875-76.9531 49.4629-82.3242Q56.7383-87.6953 65.5029-90.6494Q74.2676-93.6035 83.8867-93.6035Q93.5059-93.6035 102.246-90.6494Q110.986-87.6953 118.286-82.3242Q125.586-76.9531 130.957-69.6533Q136.328-62.3535 139.258-53.6377Q142.188-44.9219 142.188-35.2539Q142.188-25.6348 139.258-16.9189Q136.328-8.20312 130.957-0.878906Q125.586 6.44531 118.286 11.792Q110.986 17.1387 102.246 20.0928Q93.5059 23.0469 83.8867 23.0469Q72.9492 23.0469 63.3057 19.2627Q53.6621 15.4785 45.9229 8.74023Q38.1836 2.00195 32.959-6.78711Q32.7148-7.27539 32.2021-7.42188Q31.6895-7.56836 31.2012-7.37305Q30.7617-7.12891 30.6152-6.64062Q30.4688-6.15234 30.7617-5.61523Q36.4746 3.41797 44.5312 10.4736Q52.5879 17.5293 62.5488 21.5332Q72.5098 25.5371 83.8867 25.5371ZM13.1348-45.5566Q12.2559-45.5566 11.7432-45.166Q11.2305-44.7754 11.2305-44.0674Q11.2305-43.3594 11.8652-42.4805L24.7559-23.9746Q25.5371-22.8516 26.4648-22.8516Q27.3926-22.8516 28.1738-23.9746L41.0645-42.4805Q41.6992-43.3594 41.6992-44.0674Q41.6992-44.7754 41.2109-45.166Q40.7227-45.5566 39.7949-45.5566Z"/>
  </g>
  <g id="Black-M" transform="matrix(1 0 0 1 2866.16 1126)">
   <path class="hierarchical-0:primary SFSymbolsPreview212121" d="M70.752-62.1582Q68.2617-62.1582 66.5527-60.4248Q64.8438-58.6914 64.8438-56.2988L64.8438-33.0078Q64.8438-31.9336 65.2344-30.8594Q65.625-29.7852 66.3574-28.8086L76.3184-15.6738Q78.0273-13.4277 80.4443-13.0371Q82.8613-12.6465 84.9609-14.1602Q86.9629-15.6738 87.1826-18.1641Q87.4023-20.6543 85.9375-22.6074L71.6309-41.5527L76.6113-26.6602L76.6113-56.2988Q76.6113-58.6914 74.9023-60.4248Q73.1934-62.1582 70.752-62.1582Z"/>
   <path class="hierarchical-1:secondary SFSymbolsPreview4D4D4D" d="M72.4609 18.1152Q83.4473 18.1152 93.1152 13.9648Q102.783 9.81445 110.132 2.46582Q117.48-4.88281 121.631-14.5264Q125.781-24.1699 125.781-35.2051Q125.781-46.2402 121.631-55.8838Q117.48-65.5273 110.132-72.876Q102.783-80.2246 93.1152-84.375Q83.4473-88.5254 72.4609-88.5254Q61.5234-88.5254 51.9531-84.4727Q42.3828-80.4199 35.0586-73.1934Q27.7344-65.9668 23.5107-56.4697Q19.2871-46.9727 19.0918-36.1328L36.4746-36.1328Q36.6699-43.4082 39.5264-49.7803Q42.3828-56.1523 47.3145-60.9375Q52.2461-65.7227 58.667-68.4326Q65.0879-71.1426 72.4609-71.1426Q79.8828-71.1426 86.4014-68.3594Q92.9199-65.5762 97.876-60.6445Q102.832-55.7129 105.615-49.1943Q108.398-42.6758 108.398-35.2051Q108.398-27.7344 105.615-21.2158Q102.832-14.6973 97.876-9.76562Q92.9199-4.83398 86.4014-2.05078Q79.8828 0.732422 72.4609 0.732422Q67.6758 0.732422 63.3789-0.390625Q59.082-1.51367 55.2246-3.68652Q51.3672-5.85938 47.9004-9.0332Q44.873-11.7188 41.2354-12.2559Q37.5977-12.793 34.668-9.96094Q32.0801-7.42188 32.2266-3.85742Q32.373-0.292969 35.5469 3.22266Q39.502 7.66602 45.6787 11.0107Q51.8555 14.3555 58.8867 16.2354Q65.918 18.1152 72.4609 18.1152ZM13.7695-47.5098Q11.1816-47.5098 9.91211-46.0938Q8.64258-44.6777 8.69141-42.6758Q8.74023-40.6738 10.1074-38.916L26.0742-18.5059Q27.4414-16.7969 29.6143-16.7969Q31.7871-16.7969 33.1543-18.5059L49.0723-38.916Q50.3906-40.625 50.4395-42.627Q50.4883-44.6289 49.2432-46.0693Q47.998-47.5098 45.459-47.5098Z"/>
  </g>
  <g id="Heavy-M" transform="matrix(1 0 0 1 2570.38 1126)">
   <path class="hierarchical-0:primary SFSymbolsPreview212121" d="M69.6777-62.5488Q67.3828-62.5488 65.7959-60.9619Q64.209-59.375 64.209-57.1777L64.209-32.959Q64.209-31.9336 64.5996-30.9326Q64.9902-29.9316 65.6738-29.0039L76.123-15.1855Q77.7344-13.1348 79.9561-12.7686Q82.1777-12.4023 84.1309-13.7695Q85.9375-15.1855 86.1572-17.4561Q86.377-19.7266 84.9609-21.582L70.2148-41.2109L75.0488-26.6113L75.0488-57.1777Q75.0488-59.375 73.4863-60.9619Q71.9238-62.5488 69.6777-62.5488Z"/>
   <path class="hierarchical-1:secondary SFSymbolsPreview4D4D4D" d="M71.4355 17.2852Q82.2266 17.2852 91.7236 13.1836Q101.221 9.08203 108.472 1.85547Q115.723-5.37109 119.824-14.8682Q123.926-24.3652 123.926-35.2051Q123.926-46.0449 119.824-55.542Q115.723-65.0391 108.472-72.29Q101.221-79.541 91.7236-83.6182Q82.2266-87.6953 71.4355-87.6953Q60.6445-87.6953 51.1963-83.6914Q41.748-79.6875 34.5459-72.5342Q27.3438-65.3809 23.1934-56.0059Q19.043-46.6309 18.8965-35.9375L34.1309-35.9375Q34.2773-43.5547 37.207-50.1953Q40.1367-56.8359 45.2637-61.8164Q50.3906-66.7969 57.0557-69.6289Q63.7207-72.4609 71.4355-72.4609Q79.1016-72.4609 85.8643-69.5801Q92.627-66.6992 97.7539-61.5967Q102.881-56.4941 105.762-49.7314Q108.643-42.9688 108.643-35.2051Q108.643-27.4902 105.762-20.7275Q102.881-13.9648 97.7539-8.83789Q92.627-3.71094 85.8643-0.830078Q79.1016 2.05078 71.4355 2.05078Q66.1133 2.00195 61.3525 0.65918Q56.5918-0.683594 52.417-3.27148Q48.2422-5.85938 44.7266-9.47266Q42.1387-11.9141 38.9893-12.4023Q35.8398-12.8906 33.2031-10.5469Q30.9082-8.34961 30.9326-5.22461Q30.957-2.09961 33.6914 0.976562Q37.8418 5.81055 44.0186 9.49707Q50.1953 13.1836 57.3242 15.2344Q64.4531 17.2852 71.4355 17.2852ZM13.3789-46.8262Q10.9863-46.8262 9.81445-45.5811Q8.64258-44.3359 8.69141-42.5293Q8.74023-40.7227 10.0098-39.0625L24.8047-19.8242Q26.123-18.1152 28.1494-18.1152Q30.1758-18.1152 31.4941-19.8242L46.2402-39.0625Q47.4609-40.7227 47.5098-42.5049Q47.5586-44.2871 46.4111-45.5566Q45.2637-46.8262 42.9199-46.8262Z"/>
  </g>
  <g id="Bold-M" transform="matrix(1 0 0 1 2274.72 1126)">
   <path class="hierarchical-0:primary SFSymbolsPreview212121" d="M68.457-63.0371Q66.4062-63.0371 64.9902-61.5967Q63.5742-60.1562 63.5742-58.1543L63.5742-32.9102Q63.5742-31.9336 63.916-31.0059Q64.2578-30.0781 64.8926-29.1992L75.9277-14.6973Q77.3926-12.793 79.3945-12.4512Q81.3965-12.1094 83.1543-13.3789Q84.8633-14.5996 85.0342-16.6504Q85.2051-18.7012 83.8867-20.4102L68.6035-40.8203L73.3398-26.5625L73.3398-58.1543Q73.3398-60.1562 71.9238-61.5967Q70.5078-63.0371 68.457-63.0371Z"/>
   <path class="hierarchical-1:secondary SFSymbolsPreview4D4D4D" d="M70.2637 16.3574Q80.8594 16.3574 90.1855 12.3291Q99.5117 8.30078 106.641 1.17188Q113.77-5.95703 117.798-15.2832Q121.826-24.6094 121.826-35.2539Q121.826-45.8496 117.798-55.1758Q113.77-64.502 106.641-71.6309Q99.5117-78.7598 90.1855-82.7881Q80.8594-86.8164 70.2637-86.8164Q59.668-86.8164 50.3906-82.8369Q41.1133-78.8574 34.0088-71.8018Q26.9043-64.7461 22.8271-55.4932Q18.75-46.2402 18.6523-35.7422L31.4941-35.7422Q31.5918-43.7012 34.6191-50.6348Q37.6465-57.5684 42.9688-62.793Q48.291-68.0176 55.2734-70.9717Q62.2559-73.9258 70.2637-73.9258Q78.2715-73.9258 85.3027-70.9473Q92.334-67.9688 97.6562-62.6465Q102.979-57.3242 105.981-50.3174Q108.984-43.3105 108.984-35.2539Q108.984-27.1973 105.981-20.166Q102.979-13.1348 97.6562-7.8125Q92.334-2.49023 85.3027 0.512695Q78.2715 3.51562 70.2637 3.51562Q64.3555 3.4668 59.082 1.85547Q53.8086 0.244141 49.292-2.7832Q44.7754-5.81055 41.1621-10.0098Q39.1113-12.1094 36.499-12.5732Q33.8867-13.0371 31.6406-11.1816Q29.5898-9.42383 29.5166-6.7627Q29.4434-4.10156 31.6406-1.5625Q35.9375 3.80859 42.1631 7.83691Q48.3887 11.8652 55.6396 14.1113Q62.8906 16.3574 70.2637 16.3574ZM12.9883-46.0938Q10.8398-46.0938 9.76562-45.0439Q8.69141-43.9941 8.74023-42.4072Q8.78906-40.8203 9.91211-39.2578L23.3887-21.2891Q24.6582-19.5801 26.5381-19.5801Q28.418-19.5801 29.6875-21.2891L43.1152-39.2578Q44.2383-40.8203 44.2627-42.3828Q44.2871-43.9453 43.2373-45.0195Q42.1875-46.0938 40.0391-46.0938Z"/>
  </g>
  <g id="Semibold-M" transform="matrix(1 0 0 1 1978.72 1126)">
   <path class="hierarchical-0:primary SFSymbolsPreview212121" d="M67.627-63.3301Q65.7227-63.3301 64.4043-62.0117Q63.0859-60.6934 63.0859-58.8379L63.0859-32.8613Q63.0859-31.8848 63.4033-31.0303Q63.7207-30.1758 64.3555-29.3457L75.7324-14.3066Q77.1484-12.5488 78.9795-12.2314Q80.8105-11.9141 82.5195-13.0859Q84.082-14.209 84.2285-16.0889Q84.375-17.9688 83.1543-19.5801L67.4805-40.5762L72.1191-26.5137L72.1191-58.8379Q72.1191-60.6934 70.8008-62.0117Q69.4824-63.3301 67.627-63.3301Z"/>
   <path class="hierarchical-1:secondary SFSymbolsPreview4D4D4D" d="M69.4336 15.6738Q79.8828 15.6738 89.1113 11.6943Q98.3398 7.71484 105.371 0.683594Q112.402-6.34766 116.382-15.5518Q120.361-24.7559 120.361-35.2539Q120.361-45.7031 116.382-54.9072Q112.402-64.1113 105.371-71.1426Q98.3398-78.1738 89.1113-82.1777Q79.8828-86.1816 69.4336-86.1816Q58.9844-86.1816 49.8047-82.2266Q40.625-78.2715 33.5938-71.2891Q26.5625-64.3066 22.5586-55.1514Q18.5547-45.9961 18.5059-35.5469L29.6875-35.5469Q29.7363-43.7988 32.8369-50.9521Q35.9375-58.1055 41.4062-63.4766Q46.875-68.8477 54.0283-71.8994Q61.1816-74.9512 69.4336-74.9512Q77.6855-74.9512 84.8877-71.875Q92.0898-68.7988 97.5342-63.3545Q102.979-57.9102 106.079-50.708Q109.18-43.5059 109.18-35.2539Q109.18-26.9531 106.079-19.751Q102.979-12.5488 97.5342-7.10449Q92.0898-1.66016 84.8877 1.44043Q77.6855 4.54102 69.4336 4.49219Q63.1348 4.44336 57.5195 2.63672Q51.9043 0.830078 47.1191-2.49023Q42.334-5.81055 38.7207-10.3516Q36.9629-12.207 34.7412-12.6709Q32.5195-13.1348 30.5176-11.5723Q28.6621-10.1562 28.4912-7.8125Q28.3203-5.46875 30.2246-3.27148Q34.6191 2.39258 40.8447 6.66504Q47.0703 10.9375 54.4189 13.3057Q61.7676 15.6738 69.4336 15.6738ZM12.6953-45.5566Q10.6934-45.5566 9.69238-44.6289Q8.69141-43.7012 8.74023-42.2607Q8.78906-40.8203 9.86328-39.3555L22.3633-22.2656Q23.6328-20.5566 25.3906-20.5811Q27.1484-20.6055 28.3691-22.2656L40.918-39.4043Q41.9434-40.8691 41.9922-42.2852Q42.041-43.7012 41.04-44.6289Q40.0391-45.5566 38.0859-45.5566Z"/>
  </g>
  <g id="Medium-M" transform="matrix(1 0 0 1 1682.57 1126)">
   <path class="hierarchical-0:primary SFSymbolsPreview212121" d="M66.9922-63.5742Q65.2344-63.5742 63.9893-62.3291Q62.7441-61.084 62.7441-59.3262L62.7441-32.8125Q62.7441-31.8848 63.0371-31.0791Q63.3301-30.2734 63.9648-29.4434L75.6348-14.0137Q76.9531-12.3535 78.6865-12.0605Q80.4199-11.7676 81.9824-12.8906Q83.4961-13.916 83.6182-15.6738Q83.7402-17.4316 82.5684-18.9453L66.6504-40.332L71.1914-26.4648L71.1914-59.3262Q71.1914-61.084 69.9707-62.3291Q68.75-63.5742 66.9922-63.5742Z"/>
   <path class="hierarchical-1:secondary SFSymbolsPreview4D4D4D" d="M68.7988 15.1855Q79.1504 15.1855 88.2812 11.2305Q97.4121 7.27539 104.395 0.317383Q111.377-6.64062 115.308-15.7715Q119.238-24.9023 119.238-35.2539Q119.238-45.6055 115.308-54.7363Q111.377-63.8672 104.395-70.8252Q97.4121-77.7832 88.2812-81.7383Q79.1504-85.6934 68.7988-85.6934Q58.4961-85.6934 49.3896-81.7627Q40.2832-77.832 33.3008-70.8984Q26.3184-63.9648 22.3633-54.8584Q18.4082-45.752 18.3594-35.4492L28.3203-35.4492Q28.3203-43.8477 31.4697-51.1719Q34.6191-58.4961 40.1855-63.9893Q45.752-69.4824 53.0762-72.583Q60.4004-75.6836 68.7988-75.6836Q77.2461-75.6836 84.5703-72.583Q91.8945-69.4824 97.4609-63.916Q103.027-58.3496 106.177-51.0254Q109.326-43.7012 109.326-35.2539Q109.326-26.8066 106.177-19.458Q103.027-12.1094 97.4609-6.54297Q91.8945-0.976562 84.5703 2.14844Q77.2461 5.27344 68.7988 5.27344Q62.207 5.22461 56.3232 3.27148Q50.4395 1.31836 45.4834-2.22168Q40.5273-5.76172 36.8652-10.5957Q35.4004-12.3047 33.4473-12.7441Q31.4941-13.1836 29.6387-11.9141Q27.9785-10.6934 27.7588-8.61816Q27.5391-6.54297 29.1504-4.58984Q33.6426 1.31836 39.8926 5.78613Q46.1426 10.2539 53.5156 12.7197Q60.8887 15.1855 68.7988 15.1855ZM12.5-45.166Q10.5957-45.166 9.64355-44.3359Q8.69141-43.5059 8.74023-42.1875Q8.78906-40.8691 9.76562-39.4531L21.6309-23.0469Q22.9004-21.3379 24.5605-21.3379Q26.2207-21.3379 27.4414-23.0469L39.2578-39.4531Q40.2832-40.918 40.3076-42.2119Q40.332-43.5059 39.3799-44.3359Q38.4277-45.166 36.5723-45.166Z"/>
  </g>
  <g id="Regular-M" transform="matrix(1 0 0 1 1386.56 1126)">
   <path class="hierarchical-0:primary SFSymbolsPreview212121" d="M66.1621-63.8672Q64.5508-63.8672 63.4033-62.7441Q62.2559-61.6211 62.2559-60.0098L62.2559-32.7637Q62.2559-31.8848 62.5488-31.1279Q62.8418-30.3711 63.4277-29.5898L75.4883-13.6719Q76.709-12.1094 78.2959-11.8408Q79.8828-11.5723 81.3477-12.5977Q82.7148-13.5254 82.8369-15.1123Q82.959-16.6992 81.8359-18.1641L65.5762-40.0879L70.0195-26.416L70.0195-60.0098Q70.0195-61.6211 68.8965-62.7441Q67.7734-63.8672 66.1621-63.8672Z"/>
   <path class="hierarchical-1:secondary SFSymbolsPreview4D4D4D" d="M68.0176 14.5508Q78.2227 14.5508 87.2314 10.6445Q96.2402 6.73828 103.125-0.146484Q110.01-7.03125 113.916-16.04Q117.822-25.0488 117.822-35.2539Q117.822-45.459 113.916-54.4678Q110.01-63.4766 103.125-70.3613Q96.2402-77.2461 87.2314-81.1523Q78.2227-85.0586 68.0176-85.0586Q57.8125-85.0586 48.8037-81.1523Q39.7949-77.2461 32.9102-70.3857Q26.0254-63.5254 22.1191-54.5166Q18.2129-45.5078 18.2129-35.3027L26.5137-35.3027Q26.5137-43.9453 29.7119-51.4648Q32.9102-58.9844 38.623-64.6484Q44.3359-70.3125 51.8555-73.5107Q59.375-76.709 68.0176-76.709Q76.6602-76.709 84.1797-73.5107Q91.6992-70.3125 97.3877-64.624Q103.076-58.9355 106.299-51.416Q109.521-43.8965 109.521-35.2539Q109.521-26.6113 106.299-19.0674Q103.076-11.5234 97.3877-5.83496Q91.6992-0.146484 84.1797 3.07617Q76.6602 6.29883 68.0176 6.25Q61.0352 6.20117 54.7852 4.07715Q48.5352 1.95312 43.335-1.9043Q38.1348-5.76172 34.4238-10.9375Q33.3008-12.4512 31.7139-12.8662Q30.127-13.2812 28.5645-12.3535Q27.0996-11.4258 26.7822-9.66797Q26.4648-7.91016 27.7344-6.29883Q32.373-0.0976562 38.623 4.61426Q44.873 9.32617 52.3438 11.9385Q59.8145 14.5508 68.0176 14.5508ZM12.207-44.6777Q10.4492-44.6777 9.57031-43.9697Q8.69141-43.2617 8.74023-42.0898Q8.78906-40.918 9.7168-39.5508L20.6543-24.0234Q21.875-22.3145 23.4375-22.3389Q25-22.3633 26.1719-24.0234L37.1094-39.5996Q38.0371-40.9668 38.0615-42.1143Q38.0859-43.2617 37.207-43.9697Q36.3281-44.6777 34.6191-44.6777Z"/>
  </g>
  <g id="Light-M" transform="matrix(1 0 0 1 1090.76 1126)">
   <path class="hierarchical-0:primary SFSymbolsPreview212121" d="M65.1855-63.2324Q63.916-63.2324 63.0371-62.3779Q62.1582-61.5234 62.1582-60.2539L62.1582-33.4961Q62.1582-32.666 62.4023-32.0312Q62.6465-31.3965 63.1348-30.7617L75.4395-14.502Q76.3672-13.3301 77.5879-13.1592Q78.8086-12.9883 79.9316-13.7695Q80.957-14.502 81.0547-15.6738Q81.1523-16.8457 80.3223-17.9688L64.8926-38.5742L68.1152-28.6621L68.1152-60.2539Q68.1152-61.5234 67.2607-62.3779Q66.4062-63.2324 65.1855-63.2324Z"/>
   <path class="hierarchical-1:secondary SFSymbolsPreview4D4D4D" d="M67.0898 13.7207Q77.1484 13.7207 86.0107 9.8877Q94.873 6.05469 101.636-0.708008Q108.398-7.4707 112.231-16.333Q116.064-25.1953 116.064-35.2539Q116.064-45.3125 112.231-54.1748Q108.398-63.0371 101.636-69.7998Q94.873-76.5625 86.0107-80.3955Q77.1484-84.2285 67.0898-84.2285Q57.0312-84.2285 48.1689-80.3955Q39.3066-76.5625 32.5439-69.8242Q25.7812-63.0859 21.9482-54.2236Q18.1152-45.3613 18.1152-35.3027L24.4141-35.3027Q24.4141-44.1406 27.71-51.8799Q31.0059-59.6191 36.8896-65.4541Q42.7734-71.2891 50.4883-74.585Q58.2031-77.8809 67.0898-77.8809Q75.9277-77.8809 83.667-74.585Q91.4062-71.2891 97.2412-65.4297Q103.076-59.5703 106.396-51.8311Q109.717-44.0918 109.717-35.2539Q109.717-26.416 106.396-18.6768Q103.076-10.9375 97.2412-5.07812Q91.4062 0.78125 83.667 4.10156Q75.9277 7.42188 67.0898 7.37305Q59.6191 7.37305 53.0029 4.98047Q46.3867 2.58789 40.9424-1.68457Q35.498-5.95703 31.6895-11.6211Q30.8105-12.793 29.5898-13.1104Q28.3691-13.4277 27.1973-12.7441Q26.0742-12.0605 25.8301-10.7178Q25.5859-9.375 26.5137-8.1543Q31.1035-1.70898 37.3535 3.24707Q43.6035 8.20312 51.1475 10.9619Q58.6914 13.7207 67.0898 13.7207ZM11.5723-44.2383Q10.1562-44.2383 9.42383-43.6523Q8.69141-43.0664 8.71582-42.0898Q8.74023-41.1133 9.57031-39.9414L20.2148-24.8047Q21.2402-23.3398 22.5342-23.3643Q23.8281-23.3887 24.8047-24.8047L35.498-39.9902Q36.2793-41.1621 36.2793-42.1143Q36.2793-43.0664 35.5713-43.6523Q34.8633-44.2383 33.4473-44.2383Z"/>
  </g>
  <g id="Thin-M" transform="matrix(1 0 0 1 795.216 1126)">
   <path class="hierarchical-0:primary SFSymbolsPreview212121" d="M63.8672-62.3535Q63.0859-62.3535 62.5488-61.8408Q62.0117-61.3281 62.0117-60.5957L62.0117-34.4727Q62.0117-33.7402 62.207-33.2764Q62.4023-32.8125 62.7441-32.3242L75.4395-15.625Q75.9277-14.9414 76.6846-14.8682Q77.4414-14.7949 78.0273-15.2832Q78.6621-15.7715 78.7109-16.4307Q78.7598-17.0898 78.2715-17.7246L63.9648-36.5723L65.625-31.5918L65.625-60.5957Q65.625-61.3281 65.0879-61.8408Q64.5508-62.3535 63.8672-62.3535Z"/>
   <path class="hierarchical-1:secondary SFSymbolsPreview4D4D4D" d="M65.8203 12.5977Q75.6836 12.5977 84.3506 8.88672Q93.0176 5.17578 99.6338-1.44043Q106.25-8.05664 109.985-16.7236Q113.721-25.3906 113.721-35.2539Q113.721-45.1172 109.985-53.7842Q106.25-62.4512 99.6338-69.0674Q93.0176-75.6836 84.3506-79.3945Q75.6836-83.1055 65.8203-83.1055Q56.0059-83.1055 47.3145-79.3945Q38.623-75.6836 32.0312-69.0674Q25.4395-62.4512 21.7041-53.7842Q17.9688-45.1172 17.9688-35.2539L21.6797-35.2539Q21.6797-44.3848 25.0977-52.417Q28.5156-60.4492 34.5947-66.5039Q40.6738-72.5586 48.6816-75.9766Q56.6895-79.3945 65.8203-79.3945Q74.9512-79.3945 82.9834-75.9766Q91.0156-72.5586 97.0703-66.4795Q103.125-60.4004 106.567-52.3926Q110.01-44.3848 110.01-35.2539Q110.01-26.123 106.567-18.1152Q103.125-10.1074 97.0703-4.02832Q91.0156 2.05078 82.9834 5.46875Q74.9512 8.88672 65.8203 8.88672Q57.8125 8.88672 50.6836 6.17676Q43.5547 3.4668 37.7686-1.36719Q31.9824-6.20117 28.0273-12.5488Q27.5879-13.2812 26.8311-13.4521Q26.0742-13.623 25.3906-13.2812Q24.7559-12.8906 24.585-12.1338Q24.4141-11.377 24.9023-10.6445Q29.3945-3.80859 35.6445 1.44043Q41.8945 6.68945 49.5605 9.64355Q57.2266 12.5977 65.8203 12.5977ZM10.7422-43.6035Q9.76562-43.6035 9.22852-43.2129Q8.69141-42.8223 8.71582-42.0898Q8.74023-41.3574 9.32617-40.4785L19.5801-25.8301Q20.3613-24.707 21.3135-24.707Q22.2656-24.707 23.0469-25.8301L33.3008-40.5273Q33.9355-41.4062 33.9355-42.1143Q33.9355-42.8223 33.3984-43.2129Q32.8613-43.6035 31.8848-43.6035Z"/>
  </g>
  <g id="Ultralight-M" transform="matrix(1 0 0 1 499.115 1126)">
   <path class="hierarchical-0:primary SFSymbolsPreview212121" d="M63.2324-61.9141Q62.6465-61.9141 62.2803-61.5967Q61.9141-61.2793 61.9141-60.791L61.9141-34.9609Q61.9141-34.2773 62.1094-33.8867Q62.3047-33.4961 62.5488-33.1543L75.3906-16.1621Q75.7324-15.7715 76.2207-15.7715Q76.709-15.7715 77.0996-16.0645Q77.4902-16.4551 77.5146-16.8213Q77.5391-17.1875 77.2461-17.627L63.4766-35.5469L64.3555-33.1055L64.3555-60.791Q64.3555-61.2793 63.9893-61.5967Q63.623-61.9141 63.2324-61.9141Z"/>
   <path class="hierarchical-1:secondary SFSymbolsPreview4D4D4D" d="M65.1855 12.0605Q74.9512 12.0605 83.5205 8.37402Q92.0898 4.6875 98.6084-1.83105Q105.127-8.34961 108.813-16.9189Q112.5-25.4883 112.5-35.2539Q112.5-45.0195 108.813-53.5889Q105.127-62.1582 98.6084-68.6768Q92.0898-75.1953 83.5205-78.8818Q74.9512-82.5684 65.1855-82.5684Q55.4688-82.5684 46.875-78.8818Q38.2812-75.1953 31.7627-68.6768Q25.2441-62.1582 21.5576-53.5889Q17.8711-45.0195 17.8711-35.2539L20.2637-35.2539Q20.2637-44.5312 23.7549-52.6855Q27.2461-60.8398 33.4229-67.041Q39.5996-73.2422 47.7539-76.7334Q55.9082-80.2246 65.1855-80.2246Q74.4629-80.2246 82.6172-76.7334Q90.7715-73.2422 96.9482-67.041Q103.125-60.8398 106.641-52.6855Q110.156-44.5312 110.156-35.2539Q110.156-25.9766 106.641-17.8467Q103.125-9.7168 96.9482-3.51562Q90.7715 2.68555 82.6172 6.17676Q74.4629 9.66797 65.1855 9.66797Q56.8359 9.66797 49.4629 6.78711Q42.0898 3.90625 36.1328-1.19629Q30.1758-6.29883 26.1719-13.0371Q25.8789-13.4766 25.3906-13.5986Q24.9023-13.7207 24.4629-13.5254Q24.0723-13.2812 23.9258-12.8174Q23.7793-12.3535 24.1211-11.8652Q28.5156-4.93164 34.7656 0.488281Q41.0156 5.9082 48.7305 8.98438Q56.4453 12.0605 65.1855 12.0605ZM10.3027-43.3105Q9.52148-43.3105 9.10645-42.9932Q8.69141-42.6758 8.69141-42.0898Q8.69141-41.5039 9.22852-40.7715L19.2871-26.3184Q19.9219-25.3906 20.6787-25.3906Q21.4355-25.3906 22.1191-26.3184L32.2266-40.7715Q32.7148-41.5039 32.7148-42.0898Q32.7148-42.6758 32.2998-42.9932Q31.8848-43.3105 31.0547-43.3105Z"/>
  </g>
  <g id="Black-S" transform="matrix(1 0 0 1 2880.47 696)">
   <path class="hierarchical-0:primary SFSymbolsPreview212121" d="M55.7129-56.1523Q53.7598-56.1523 52.3682-54.7852Q50.9766-53.418 50.9766-51.4648L50.9766-33.5449Q50.9766-31.8359 52.1973-30.2246L59.8633-20.1172Q61.2305-18.3105 63.1836-17.9932Q65.1367-17.6758 66.748-18.8965Q68.3594-20.1172 68.5303-22.1191Q68.7012-24.1211 67.5293-25.6348L56.543-40.1855L60.4004-28.6621L60.4004-51.4648Q60.4004-53.418 59.0332-54.7852Q57.666-56.1523 55.7129-56.1523Z"/>
   <path class="hierarchical-1:secondary SFSymbolsPreview4D4D4D" d="M57.0312 6.78711Q65.7227 6.78711 73.3398 3.51562Q80.957 0.244141 86.7188-5.54199Q92.4805-11.3281 95.752-18.9209Q99.0234-26.5137 99.0234-35.2051Q99.0234-43.8965 95.752-51.4893Q92.4805-59.082 86.7188-64.8682Q80.957-70.6543 73.3398-73.9258Q65.7227-77.1973 57.0312-77.1973Q48.4375-77.1973 40.918-73.999Q33.3984-70.8008 27.6367-65.1367Q21.875-59.4727 18.5547-52.002Q15.2344-44.5312 15.0391-35.9863L29.1992-35.9863Q29.3945-41.6504 31.6162-46.5576Q33.8379-51.4648 37.6221-55.1514Q41.4062-58.8379 46.3867-60.9375Q51.3672-63.0371 57.0312-63.0371Q62.793-63.0371 67.8467-60.8643Q72.9004-58.6914 76.7334-54.8828Q80.5664-51.0742 82.7148-46.0205Q84.8633-40.9668 84.8633-35.2051Q84.8633-29.4434 82.7148-24.3896Q80.5664-19.3359 76.7334-15.5273Q72.9004-11.7188 67.8467-9.5459Q62.793-7.37305 57.0312-7.37305Q51.6113-7.37305 47.0215-9.22852Q42.4316-11.084 38.3301-14.5996Q35.8887-16.748 32.9102-17.1875Q29.9316-17.627 27.5391-15.2832Q25.4883-13.1836 25.6348-10.3027Q25.7812-7.42188 28.3691-4.54102Q31.4453-1.17188 36.2793 1.36719Q41.1133 3.90625 46.582 5.34668Q52.0508 6.78711 57.0312 6.78711ZM10.8887-45.0195Q8.83789-45.0195 7.8125-43.8721Q6.78711-42.7246 6.83594-41.1133Q6.88477-39.502 7.95898-38.0859L20.8008-21.7773Q21.875-20.459 23.6328-20.459Q25.3906-20.459 26.416-21.7773L39.209-38.0859Q40.2832-39.4531 40.332-41.0645Q40.3809-42.6758 39.3799-43.8477Q38.3789-45.0195 36.3281-45.0195Z"/>
  </g>
  <g id="Heavy-S" transform="matrix(1 0 0 1 2584.44 696)">
   <path class="hierarchical-0:primary SFSymbolsPreview212121" d="M54.8828-56.5918Q53.0762-56.5918 51.7822-55.2979Q50.4883-54.0039 50.4883-52.1973L50.4883-33.3984Q50.4883-31.7871 51.6113-30.2246L59.668-19.6289Q60.9863-17.8711 62.8174-17.5781Q64.6484-17.2852 66.2109-18.457Q67.7246-19.5801 67.8711-21.4355Q68.0176-23.291 66.8945-24.7559L55.4199-40.0879L59.3262-28.3203L59.3262-52.1973Q59.3262-54.0039 58.0322-55.2979Q56.7383-56.5918 54.8828-56.5918Z"/>
   <path class="hierarchical-1:secondary SFSymbolsPreview4D4D4D" d="M56.25 6.15234Q64.7949 6.15234 72.29 2.92969Q79.7852-0.292969 85.4736-6.00586Q91.1621-11.7188 94.4092-19.1895Q97.6562-26.6602 97.6562-35.2051Q97.6562-43.75 94.4092-51.2451Q91.1621-58.7402 85.4736-64.4531Q79.7852-70.166 72.29-73.3887Q64.7949-76.6113 56.25-76.6113Q47.8027-76.6113 40.3564-73.4375Q32.9102-70.2637 27.2217-64.6484Q21.5332-59.0332 18.2861-51.6357Q15.0391-44.2383 14.8438-35.8398L27.4414-35.8398Q27.5879-41.6992 29.8828-46.8262Q32.1777-51.9531 36.084-55.8105Q39.9902-59.668 45.166-61.8408Q50.3418-64.0137 56.25-64.0137Q62.207-64.0137 67.4561-61.7676Q72.7051-59.5215 76.6602-55.5908Q80.6152-51.6602 82.8369-46.4111Q85.0586-41.1621 85.0586-35.2051Q85.0586-29.248 82.8369-24.0234Q80.6152-18.7988 76.6602-14.8438Q72.7051-10.8887 67.4561-8.64258Q62.207-6.39648 56.25-6.39648Q50.2441-6.39648 45.1904-8.61816Q40.1367-10.8398 35.9375-14.8926Q33.8379-16.8457 31.2256-17.2852Q28.6133-17.7246 26.4648-15.7227Q24.6094-13.916 24.6582-11.3281Q24.707-8.74023 26.9043-6.20117Q30.1758-2.53906 35.0098 0.244141Q39.8438 3.02734 45.3857 4.58984Q50.9277 6.15234 56.25 6.15234ZM10.6445-44.5312Q8.74023-44.5312 7.76367-43.5059Q6.78711-42.4805 6.83594-40.9912Q6.88477-39.502 7.91016-38.1836L19.7754-22.8027Q20.8496-21.4355 22.5098-21.4355Q24.1699-21.4355 25.1953-22.8027L37.0117-38.1836Q38.0371-39.502 38.0615-40.9668Q38.0859-42.4316 37.1338-43.4814Q36.1816-44.5312 34.2773-44.5312Z"/>
  </g>
  <g id="Bold-S" transform="matrix(1 0 0 1 2288.51 696)">
   <path class="hierarchical-0:primary SFSymbolsPreview212121" d="M54.0039-57.0801Q52.2949-57.0801 51.0986-55.8838Q49.9023-54.6875 49.9023-53.0273L49.9023-33.252Q49.9023-31.6895 51.0254-30.2246L59.5215-19.043Q60.7422-17.4316 62.4268-17.1387Q64.1113-16.8457 65.5762-17.9199Q66.9922-18.9453 67.1387-20.6543Q67.2852-22.3633 66.2109-23.7793L54.1504-39.9902L58.1055-27.9785L58.1055-53.0273Q58.1055-54.6875 56.9092-55.8838Q55.7129-57.0801 54.0039-57.0801Z"/>
   <path class="hierarchical-1:secondary SFSymbolsPreview4D4D4D" d="M55.3711 5.46875Q63.7695 5.46875 71.1426 2.29492Q78.5156-0.878906 84.1309-6.51855Q89.7461-12.1582 92.9199-19.5068Q96.0938-26.8555 96.0938-35.2539Q96.0938-43.6035 92.9199-50.9766Q89.7461-58.3496 84.1309-63.9648Q78.5156-69.5801 71.1426-72.7539Q63.7695-75.9277 55.3711-75.9277Q47.0703-75.9277 39.7461-72.8027Q32.4219-69.6777 26.8066-64.1113Q21.1914-58.5449 17.9932-51.2451Q14.7949-43.9453 14.6973-35.6445L25.4883-35.6445Q25.5859-41.7969 27.9297-47.1436Q30.2734-52.4902 34.3506-56.5186Q38.4277-60.5469 43.8232-62.8418Q49.2188-65.1367 55.3711-65.1367Q61.6211-65.1367 67.041-62.8174Q72.4609-60.498 76.5625-56.3965Q80.6641-52.2949 82.9834-46.875Q85.3027-41.4551 85.3027-35.2539Q85.3027-29.0527 82.9834-23.6084Q80.6641-18.1641 76.5625-14.0625Q72.4609-9.96094 67.041-7.6416Q61.6211-5.32227 55.3711-5.32227Q48.7793-5.37109 43.1641-7.9834Q37.5488-10.5957 33.3008-15.2344Q31.5918-16.9922 29.3945-17.4072Q27.1973-17.8223 25.293-16.2109Q23.584-14.7461 23.5352-12.5Q23.4863-10.2539 25.3418-8.10547Q28.7109-4.05273 33.5938-1.00098Q38.4766 2.05078 44.0918 3.75977Q49.707 5.46875 55.3711 5.46875ZM10.4004-43.9453Q8.59375-43.9453 7.69043-43.0664Q6.78711-42.1875 6.83594-40.8691Q6.88477-39.5508 7.86133-38.2812L18.6035-23.9258Q19.6777-22.5586 21.2158-22.5586Q22.7539-22.5586 23.7793-23.9258L34.5215-38.2812Q35.498-39.5508 35.5225-40.8447Q35.5469-42.1387 34.668-43.042Q33.7891-43.9453 31.9824-43.9453Z"/>
  </g>
  <g id="Semibold-S" transform="matrix(1 0 0 1 1992.34 696)">
   <path class="hierarchical-0:primary SFSymbolsPreview212121" d="M53.3691-57.4219Q51.7578-57.4219 50.6348-56.2744Q49.5117-55.127 49.5117-53.5645L49.5117-33.1055Q49.5117-31.6406 50.5859-30.2246L59.375-18.6523Q60.5469-17.0898 62.1338-16.8213Q63.7207-16.5527 65.1367-17.5781Q66.5039-18.5059 66.626-20.1172Q66.748-21.7285 65.6738-23.0957L53.2227-39.8926L57.2266-27.6855L57.2266-53.5645Q57.2266-55.127 56.1035-56.2744Q54.9805-57.4219 53.3691-57.4219Z"/>
   <path class="hierarchical-1:secondary SFSymbolsPreview4D4D4D" d="M54.7852 4.98047Q63.0371 4.98047 70.3369 1.85547Q77.6367-1.26953 83.1787-6.86035Q88.7207-12.4512 91.8701-19.7266Q95.0195-27.002 95.0195-35.2539Q95.0195-43.5059 91.8701-50.7812Q88.7207-58.0566 83.1787-63.623Q77.6367-69.1895 70.3369-72.3389Q63.0371-75.4883 54.7852-75.4883Q46.5332-75.4883 39.2822-72.3633Q32.0312-69.2383 26.4893-63.7207Q20.9473-58.2031 17.7734-50.9766Q14.5996-43.75 14.5508-35.498L24.1211-35.498Q24.2188-41.8457 26.5869-47.3633Q28.9551-52.8809 33.1543-57.0312Q37.3535-61.1816 42.8955-63.5254Q48.4375-65.8691 54.7852-65.8691Q61.1816-65.8691 66.7236-63.501Q72.2656-61.1328 76.4893-56.9336Q80.7129-52.7344 83.0811-47.168Q85.4492-41.6016 85.4492-35.2539Q85.4492-28.8574 83.0811-23.291Q80.7129-17.7246 76.4893-13.5254Q72.2656-9.32617 66.7236-6.95801Q61.1816-4.58984 54.7852-4.58984Q47.7051-4.58984 41.7236-7.49512Q35.7422-10.4004 31.4941-15.4785Q30.0293-17.0898 28.1006-17.4805Q26.1719-17.8711 24.4629-16.5039Q22.9004-15.332 22.7539-13.3057Q22.6074-11.2793 24.2188-9.42383Q27.7344-5.07812 32.6172-1.85547Q37.5 1.36719 43.1885 3.17383Q48.877 4.98047 54.7852 4.98047ZM10.2051-43.5547Q8.49609-43.5547 7.6416-42.749Q6.78711-41.9434 6.83594-40.7471Q6.88477-39.5508 7.8125-38.3301L17.8223-24.707Q18.8477-23.3398 20.3125-23.3398Q21.7773-23.3398 22.8027-24.707L32.8125-38.3301Q33.7402-39.5996 33.7402-40.7715Q33.7402-41.9434 32.9102-42.749Q32.0801-43.5547 30.4199-43.5547Z"/>
  </g>
  <g id="Medium-S" transform="matrix(1 0 0 1 1696.02 696)">
   <path class="hierarchical-0:primary SFSymbolsPreview212121" d="M52.9297-57.666Q51.3672-57.666 50.293-56.5918Q49.2188-55.5176 49.2188-54.0039L49.2188-33.0078Q49.2188-31.5918 50.2441-30.2246L59.2773-18.3594Q60.4004-16.8457 61.9141-16.5771Q63.4277-16.3086 64.8438-17.2852Q66.1133-18.2129 66.2354-19.7266Q66.3574-21.2402 65.332-22.6074L52.5879-39.8438L56.5918-27.4902L56.5918-54.0039Q56.5918-55.5176 55.5176-56.5918Q54.4434-57.666 52.9297-57.666Z"/>
   <path class="hierarchical-1:secondary SFSymbolsPreview4D4D4D" d="M54.2969 4.63867Q62.5 4.63867 69.7266 1.51367Q76.9531-1.61133 82.4463-7.12891Q87.9395-12.6465 91.0889-19.8486Q94.2383-27.0508 94.2383-35.2539Q94.2383-43.4082 91.0889-50.6348Q87.9395-57.8613 82.4463-63.3789Q76.9531-68.8965 69.7266-71.9971Q62.5-75.0977 54.2969-75.0977Q46.1426-75.0977 38.9404-71.9971Q31.7383-68.8965 26.2451-63.4277Q20.752-57.959 17.6025-50.7568Q14.4531-43.5547 14.4531-35.4492L23.0957-35.4492Q23.1445-41.8945 25.5615-47.5098Q27.9785-53.125 32.251-57.373Q36.5234-61.6211 42.1875-64.0381Q47.8516-66.4551 54.2969-66.4551Q60.8398-66.4551 66.4795-64.0381Q72.1191-61.6211 76.416-57.3486Q80.7129-53.0762 83.1299-47.4121Q85.5469-41.748 85.5469-35.2539Q85.5469-28.7598 83.1299-23.0957Q80.7129-17.4316 76.416-13.1348Q72.1191-8.83789 66.4795-6.4209Q60.8398-4.00391 54.2969-4.00391Q46.9238-4.05273 40.6494-7.17773Q34.375-10.3027 30.0781-15.625Q28.8574-17.1387 27.124-17.5293Q25.3906-17.9199 23.877-16.748Q22.3633-15.7227 22.168-13.8916Q21.9727-12.0605 23.3398-10.4004Q26.9531-5.9082 31.8604-2.51465Q36.7676 0.878906 42.4805 2.75879Q48.1934 4.63867 54.2969 4.63867ZM10.0586-43.2617Q8.44727-43.2617 7.61719-42.5293Q6.78711-41.7969 6.83594-40.6982Q6.88477-39.5996 7.76367-38.3789L17.1875-25.293Q18.2129-23.9258 19.6289-23.9258Q21.0449-23.9258 22.0703-25.293L31.543-38.4277Q32.373-39.5996 32.3975-40.6982Q32.4219-41.7969 31.6162-42.5293Q30.8105-43.2617 29.1992-43.2617Z"/>
  </g>
  <g id="Regular-S" transform="matrix(1 0 0 1 1399.84 696)">
   <path class="hierarchical-0:primary SFSymbolsPreview212121" d="M52.2949-58.0078Q50.8301-58.0078 49.8291-56.9824Q48.8281-55.957 48.8281-54.541L48.8281-32.9102Q48.8281-31.543 49.8047-30.2246L59.1309-17.9688Q60.2051-16.5039 61.6211-16.2598Q63.0371-16.0156 64.4043-16.9434Q65.625-17.7734 65.7227-19.1895Q65.8203-20.6055 64.8438-21.9238L51.709-39.7461L55.7617-27.2461L55.7617-54.541Q55.7617-55.957 54.7607-56.9824Q53.7598-58.0078 52.2949-58.0078Z"/>
   <path class="hierarchical-1:secondary SFSymbolsPreview4D4D4D" d="M53.7109 4.15039Q61.7676 4.15039 68.9209 1.07422Q76.0742-2.00195 81.5186-7.4707Q86.9629-12.9395 90.0635-20.0684Q93.1641-27.1973 93.1641-35.2539Q93.1641-43.3105 90.0635-50.4395Q86.9629-57.5684 81.5186-63.0371Q76.0742-68.5059 68.9209-71.582Q61.7676-74.6582 53.7109-74.6582Q45.6543-74.6582 38.5254-71.582Q31.3965-68.5059 25.9521-63.0615Q20.5078-57.6172 17.4072-50.4883Q14.3066-43.3594 14.3066-35.3027L21.7773-35.3027Q21.7773-41.9434 24.2432-47.7295Q26.709-53.5156 31.0791-57.8857Q35.4492-62.2559 41.2598-64.7217Q47.0703-67.1875 53.7109-67.1875Q60.4004-67.1875 66.1865-64.7217Q71.9727-62.2559 76.3672-57.8857Q80.7617-53.5156 83.2275-47.7051Q85.6934-41.8945 85.6934-35.2539Q85.6934-28.6133 83.2275-22.8027Q80.7617-16.9922 76.3672-12.5977Q71.9727-8.20312 66.1865-5.7373Q60.4004-3.27148 53.7109-3.27148Q45.8984-3.32031 39.2578-6.71387Q32.6172-10.1074 28.2715-15.8691Q27.2949-17.2363 25.8545-17.6025Q24.4141-17.9688 23.0469-17.0898Q21.6797-16.3086 21.4111-14.6973Q21.1426-13.0859 22.2656-11.6699Q25.9766-6.93359 30.8838-3.36914Q35.791 0.195312 41.5771 2.17285Q47.3633 4.15039 53.7109 4.15039ZM9.86328-42.8711Q8.34961-42.8711 7.56836-42.2363Q6.78711-41.6016 6.83594-40.6006Q6.88477-39.5996 7.71484-38.4277L16.4062-26.0742Q17.4316-24.6582 18.7744-24.6582Q20.1172-24.6582 21.1426-26.0742L29.834-38.4766Q30.6641-39.6484 30.6641-40.625Q30.6641-41.6016 29.9072-42.2363Q29.1504-42.8711 27.6367-42.8711Z"/>
  </g>
  <g id="Light-S" transform="matrix(1 0 0 1 1103.91 696)">
   <path class="hierarchical-0:primary SFSymbolsPreview212121" d="M51.416-57.4219Q50.293-57.4219 49.5117-56.6406Q48.7305-55.8594 48.7305-54.7363L48.7305-33.5449Q48.7305-32.373 49.5605-31.2988L59.1309-18.7012Q59.9121-17.5781 61.0107-17.4072Q62.1094-17.2363 63.1836-17.9688Q64.1113-18.6035 64.1846-19.6777Q64.2578-20.752 63.5254-21.7773L51.123-38.4277L54.1016-29.1992L54.1016-54.7363Q54.1016-55.8594 53.3203-56.6406Q52.5391-57.4219 51.416-57.4219Z"/>
   <path class="hierarchical-1:secondary SFSymbolsPreview4D4D4D" d="M52.8809 3.41797Q60.8398 3.41797 67.8467 0.415039Q74.8535-2.58789 80.2002-7.95898Q85.5469-13.3301 88.5742-20.3125Q91.6016-27.2949 91.6016-35.2539Q91.6016-43.2129 88.5742-50.1953Q85.5469-57.1777 80.2002-62.5488Q74.8535-67.9199 67.8467-70.9229Q60.8398-73.9258 52.8809-73.9258Q44.9707-73.9258 37.9639-70.9229Q30.957-67.9199 25.6348-62.5732Q20.3125-57.2266 17.2607-50.2197Q14.209-43.2129 14.209-35.3027L19.9219-35.3027Q19.9219-42.1387 22.4854-48.0957Q25.0488-54.0527 29.5654-58.5693Q34.082-63.0859 40.0635-65.6494Q46.0449-68.2129 52.8809-68.2129Q59.7656-68.2129 65.7471-65.6494Q71.7285-63.0859 76.2451-58.5693Q80.7617-54.0527 83.3252-48.0713Q85.8887-42.0898 85.8887-35.2539Q85.8887-28.418 83.3252-22.4365Q80.7617-16.4551 76.2451-11.9141Q71.7285-7.37305 65.7471-4.83398Q59.7656-2.29492 52.8809-2.29492Q44.4824-2.29492 37.4023-6.17676Q30.3223-10.0586 25.8301-16.5039Q25.0977-17.5293 23.999-17.8223Q22.9004-18.1152 21.875-17.4316Q20.8008-16.8457 20.5811-15.625Q20.3613-14.4043 21.2402-13.2812Q24.8535-8.34961 29.7607-4.56543Q34.668-0.78125 40.5273 1.31836Q46.3867 3.41797 52.8809 3.41797ZM9.32617-42.4805Q8.10547-42.4805 7.44629-41.9678Q6.78711-41.4551 6.83594-40.6006Q6.88477-39.7461 7.56836-38.7695L16.0156-26.7578Q16.8945-25.5371 17.9932-25.5371Q19.0918-25.5371 19.9707-26.7578L28.418-38.8184Q29.1016-39.7949 29.1016-40.625Q29.1016-41.4551 28.4668-41.9678Q27.832-42.4805 26.6113-42.4805Z"/>
  </g>
  <g id="Thin-S" transform="matrix(1 0 0 1 808.229 696)">
   <path class="hierarchical-0:primary SFSymbolsPreview212121" d="M50.293-56.6406Q49.6094-56.6406 49.1211-56.1768Q48.6328-55.7129 48.6328-55.0293L48.6328-34.4238Q48.6328-33.4961 49.2188-32.666L59.082-19.6777Q59.5703-19.043 60.2539-18.9697Q60.9375-18.8965 61.5234-19.2871Q62.0605-19.7266 62.1094-20.3369Q62.1582-20.9473 61.7676-21.582L50.293-36.6699L51.9043-31.8359L51.9043-55.0293Q51.9043-55.7129 51.416-56.1768Q50.9277-56.6406 50.293-56.6406Z"/>
   <path class="hierarchical-1:secondary SFSymbolsPreview4D4D4D" d="M51.8066 2.44141Q59.5703 2.44141 66.4062-0.488281Q73.2422-3.41797 78.4424-8.64258Q83.6426-13.8672 86.5967-20.6787Q89.5508-27.4902 89.5508-35.2539Q89.5508-43.0176 86.5967-49.8291Q83.6426-56.6406 78.4424-61.8652Q73.2422-67.0898 66.4062-70.0195Q59.5703-72.9492 51.8066-72.9492Q44.0918-72.9492 37.2559-70.0195Q30.4199-67.0898 25.2197-61.8896Q20.0195-56.6895 17.0654-49.8779Q14.1113-43.0664 14.1113-35.2539L17.5293-35.2539Q17.5293-42.3828 20.1904-48.6084Q22.8516-54.834 27.5635-59.5215Q32.2754-64.209 38.501-66.8701Q44.7266-69.5312 51.8066-69.5312Q58.9355-69.5312 65.1611-66.8701Q71.3867-64.209 76.0986-59.5215Q80.8105-54.834 83.4717-48.584Q86.1328-42.334 86.1328-35.2539Q86.1328-28.1738 83.4717-21.9238Q80.8105-15.6738 76.0986-10.9619Q71.3867-6.25 65.1611-3.58887Q58.9355-0.927734 51.8066-0.927734Q42.5781-0.976562 34.9365-5.49316Q27.2949-10.0098 22.6562-17.334Q22.2168-17.9199 21.5576-18.0908Q20.8984-18.2617 20.2637-17.9199Q19.6289-17.5781 19.4824-16.8701Q19.3359-16.1621 19.8242-15.4785Q23.3887-10.2539 28.2715-6.20117Q33.1543-2.14844 39.1357 0.146484Q45.1172 2.44141 51.8066 2.44141ZM8.59375-41.9434Q7.76367-41.9434 7.2998-41.5771Q6.83594-41.2109 6.83594-40.6006Q6.83594-39.9902 7.37305-39.2578L15.4785-27.6367Q16.1133-26.709 16.9189-26.709Q17.7246-26.709 18.4082-27.6367L26.5137-39.2578Q27.0508-39.9902 27.0508-40.6006Q27.0508-41.2109 26.5869-41.5771Q26.123-41.9434 25.293-41.9434Z"/>
  </g>
  <g id="Ultralight-S" transform="matrix(1 0 0 1 512.055 696)">
   <path class="hierarchical-0:primary SFSymbolsPreview212121" d="M49.707-56.25Q49.2188-56.25 48.877-55.9326Q48.5352-55.6152 48.5352-55.1758L48.5352-34.8633Q48.5352-34.082 49.0723-33.3984L59.082-20.166Q59.375-19.7754 59.8389-19.751Q60.3027-19.7266 60.6934-19.9707Q61.0352-20.3125 61.0596-20.6787Q61.084-21.0449 60.8398-21.4844L49.9023-35.7422L50.7812-33.1543L50.7812-55.1758Q50.7812-55.6152 50.4639-55.9326Q50.1465-56.25 49.707-56.25Z"/>
   <path class="hierarchical-1:secondary SFSymbolsPreview4D4D4D" d="M51.2695 1.95312Q58.9355 1.95312 65.6982-0.927734Q72.4609-3.80859 77.5879-8.95996Q82.7148-14.1113 85.5957-20.8252Q88.4766-27.5391 88.4766-35.2539Q88.4766-42.9688 85.5957-49.6826Q82.7148-56.3965 77.5879-61.5479Q72.4609-66.6992 65.6982-69.5801Q58.9355-72.4609 51.2695-72.4609Q43.6035-72.4609 36.8652-69.5801Q30.127-66.6992 25-61.5479Q19.873-56.3965 16.9434-49.6826Q14.0137-42.9688 14.0137-35.2539L16.2598-35.2539Q16.2598-42.4805 18.9941-48.8281Q21.7285-55.1758 26.5381-59.9854Q31.3477-64.7949 37.6953-67.5049Q44.043-70.2148 51.2695-70.2148Q58.4961-70.2148 64.8438-67.5049Q71.1914-64.7949 76.001-59.9854Q80.8105-55.1758 83.5449-48.8281Q86.2793-42.4805 86.2793-35.2539Q86.2793-28.0273 83.5449-21.6797Q80.8105-15.332 76.001-10.5225Q71.1914-5.71289 64.8438-3.00293Q58.4961-0.292969 51.2695-0.292969Q41.6016-0.292969 33.667-5.12695Q25.7324-9.96094 20.9961-17.7246Q20.752-18.1641 20.3125-18.2617Q19.873-18.3594 19.4824-18.1641Q19.043-17.9199 18.9453-17.4805Q18.8477-17.041 19.1406-16.5527Q22.6074-11.1816 27.4902-6.98242Q32.373-2.7832 38.4033-0.415039Q44.4336 1.95312 51.2695 1.95312ZM8.25195-41.6504Q7.56836-41.6504 7.20215-41.3818Q6.83594-41.1133 6.83594-40.6006Q6.83594-40.0879 7.27539-39.502L15.2344-28.125Q15.7715-27.3438 16.4062-27.3438Q17.041-27.3438 17.5781-28.125L25.5371-39.4531Q25.9766-40.0879 25.9766-40.6006Q25.9766-41.1133 25.6104-41.3818Q25.2441-41.6504 24.6094-41.6504Z"/>
  </g>
 </g>
</svg>
